# Blender v3.0.0 OBJ File: 'SteelSword.blend'
# www.blender.org
mtllib SteelSword.mtl
o Cube
v 0.030843 1.223416 -0.033516
v 0.031404 0.354040 -0.033516
v 0.030843 1.223416 0.047400
v 0.031404 0.354040 0.047400
v -0.010260 1.223416 -0.033516
v -0.010821 0.354040 -0.033516
v -0.010260 1.223416 0.047400
v -0.010821 0.354040 0.047400
v 0.010292 1.223416 0.075977
v -0.016239 0.331543 0.094924
v 0.010292 0.354040 0.075977
v 0.036822 0.331543 0.094924
v 0.010292 1.223416 -0.067883
v 0.010292 0.354040 -0.067883
v -0.016239 0.331543 -0.077496
v 0.036822 0.331543 -0.077496
v 0.010292 1.337097 0.037522
v 0.010292 1.337097 0.037522
v 0.010292 1.337097 -0.024098
v 0.010292 1.337097 -0.024098
v 0.010292 1.275005 0.059283
v 0.010292 0.321080 0.164548
v 0.010292 1.275005 -0.050269
v 0.010292 0.321080 -0.163543
v -0.025024 0.269783 -0.106039
v -0.025024 0.269783 0.123468
v 0.045607 0.269783 0.123468
v 0.045607 0.269783 -0.106039
v 0.045607 0.317893 -0.225429
v -0.025024 0.317893 -0.225429
v 0.045607 0.283432 -0.225429
v -0.025024 0.283432 -0.225429
v -0.025024 0.317893 0.228112
v 0.045607 0.317893 0.228112
v -0.025024 0.283432 0.228112
v 0.045607 0.283432 0.228112
v 0.010292 0.300663 -0.288345
v 0.010292 0.300663 0.293746
v -0.019907 0.257288 -0.022425
v -0.019907 0.257288 0.039949
v 0.040490 0.257288 0.039949
v 0.040490 0.257288 -0.022425
v -0.018646 0.034806 -0.017895
v -0.018646 0.034806 0.034931
v 0.039229 0.034806 0.034931
v 0.039229 0.034806 -0.017895
v 0.010292 -0.000064 0.008762
v 0.030843 1.223416 0.004819
v 0.031404 0.354040 0.004819
v -0.010821 0.354040 0.004819
v -0.010260 1.223416 0.004819
v -0.038058 0.331543 0.002694
v 0.053587 0.331543 0.002694
v 0.010292 1.409496 0.005095
v -0.038058 0.269783 0.002694
v 0.045607 0.269783 0.002694
v -0.019907 0.257288 0.007126
v 0.040490 0.257288 0.007126
v -0.018646 0.034806 0.007132
v 0.039229 0.034806 0.007132
vt 0.350824 0.849997
vt 0.350824 0.849997
vt 0.350824 0.849997
vt 0.350824 0.849997
vt 0.347699 0.851560
vt 0.347699 0.851560
vt 0.347699 0.851560
vt 0.347699 0.851560
vt 0.468012 0.854685
vt 0.468012 0.854685
vt 0.468012 0.854685
vt 0.468012 0.854685
vt 0.468012 0.854685
vt 0.468012 0.854685
vt 0.468012 0.854685
vt 0.468012 0.854685
vt 0.350824 0.849997
vt 0.350824 0.849997
vt 0.350824 0.849997
vt 0.350824 0.849997
vt 0.468012 0.854685
vt 0.468012 0.854685
vt 0.468012 0.854685
vt 0.468012 0.854685
vt 0.468012 0.854685
vt 0.468012 0.854685
vt 0.468012 0.854685
vt 0.468012 0.854685
vt 0.468012 0.854685
vt 0.468012 0.854685
vt 0.468012 0.854685
vt 0.468012 0.854685
vt 0.468012 0.854685
vt 0.468012 0.854685
vt 0.468012 0.854685
vt 0.468012 0.854685
vt 0.347699 0.851560
vt 0.347699 0.851560
vt 0.468012 0.854685
vt 0.468012 0.854685
vt 0.468012 0.854685
vt 0.468012 0.854685
vt 0.356398 0.857165
vt 0.356398 0.857165
vt 0.356398 0.857165
vt 0.356398 0.857165
vt 0.347699 0.851560
vt 0.347699 0.851560
vt 0.468012 0.854685
vt 0.468012 0.854685
vt 0.468012 0.854685
vt 0.468012 0.854685
vt 0.468012 0.854685
vt 0.468012 0.854685
vt 0.468012 0.854685
vt 0.468012 0.854685
vt 0.468012 0.854685
vt 0.468012 0.854685
vt 0.468012 0.854685
vt 0.468012 0.854685
vt 0.468012 0.854685
vt 0.468012 0.854685
vt 0.468012 0.854685
vt 0.468012 0.854685
vt 0.468012 0.854685
vt 0.468012 0.854685
vt 0.551102 0.844764
vt 0.551102 0.844764
vt 0.551102 0.844764
vt 0.551102 0.844764
vt 0.472699 0.851560
vt 0.472699 0.851560
vt 0.472699 0.851560
vt 0.472699 0.851560
vt 0.472699 0.851560
vt 0.472699 0.851560
vt 0.472699 0.851560
vt 0.472699 0.851560
vt 0.472699 0.851560
vt 0.472699 0.851560
vt 0.635433 0.852205
vt 0.635433 0.852205
vt 0.635433 0.852205
vt 0.354227 0.643201
vt 0.354227 0.643201
vt 0.354227 0.643201
vt 0.354227 0.643201
vt 0.354227 0.643201
vt 0.354227 0.643201
vt 0.354227 0.643201
vt 0.354227 0.643201
vt 0.354227 0.643201
vt 0.354227 0.643201
vt 0.635433 0.852205
vt 0.635433 0.852205
vt 0.635433 0.852205
vt 0.635433 0.852205
vt 0.354227 0.643201
vt 0.354227 0.643201
vt 0.472699 0.851560
vt 0.472699 0.851560
vt 0.347699 0.851560
vt 0.347699 0.851560
vt 0.350824 0.849997
vt 0.350824 0.849997
vt 0.347699 0.851560
vt 0.350824 0.849997
vt 0.350824 0.849997
vn -1.0000 0.0006 0.0000
vn 0.9790 0.1391 -0.1491
vn 0.8081 0.0003 0.5891
vn -0.5565 0.7793 -0.2879
vn 1.0000 0.0006 0.0000
vn -0.8552 0.0003 -0.5184
vn 0.0000 -0.9889 -0.1486
vn -0.7313 0.6687 -0.1346
vn 0.8040 0.1905 0.5633
vn -0.8081 0.0003 0.5891
vn 0.0000 -0.9927 0.1207
vn 0.4717 0.8229 0.3166
vn 0.8570 0.1852 -0.4809
vn 0.8552 0.0003 -0.5184
vn 0.0000 0.0000 1.0000
vn -0.9773 0.1112 -0.1803
vn 0.5565 0.7793 -0.2879
vn -0.8040 0.1905 0.5633
vn -0.8570 0.1852 -0.4809
vn -0.9812 0.1388 0.1340
vn 0.8003 0.5913 0.0995
vn -0.4717 0.8229 0.3166
vn 0.0000 -0.9890 0.1480
vn 0.0000 0.9958 -0.0919
vn 0.9966 0.0246 0.0784
vn 0.0000 -0.9916 0.1293
vn -0.8720 0.0000 -0.4895
vn 0.9962 0.0812 0.0327
vn -0.9962 0.0812 0.0327
vn 0.0000 -0.9935 -0.1136
vn 0.8806 0.0000 0.4738
vn 0.0000 0.9948 0.1020
vn 0.9961 0.0800 -0.0368
vn -0.9961 0.0800 -0.0368
vn 0.0000 0.9645 -0.2641
vn 0.8720 0.0000 -0.4895
vn 0.0000 -0.9645 -0.2641
vn 0.0000 -0.9672 0.2539
vn -0.8806 0.0000 0.4738
vn 0.0000 0.9672 0.2539
vn 0.0000 -0.0225 0.9997
vn 0.9254 -0.3790 0.0000
vn 0.0000 -0.9890 -0.1478
vn -0.6196 -0.7827 -0.0584
vn 0.0000 -0.6073 -0.7944
vn 1.0000 -0.0057 0.0000
vn 0.0000 -0.0204 -0.9998
vn -1.0000 -0.0057 0.0000
vn -0.7695 -0.6386 0.0000
vn 0.0000 -0.6002 0.7998
vn 0.7695 -0.6386 0.0000
vn -0.6393 -0.7670 0.0543
vn 0.9957 0.0269 -0.0884
vn 0.7918 0.6005 -0.1120
vn -0.9790 0.1391 -0.1491
vn -0.9812 0.1069 0.1606
vn -0.7419 0.6596 0.1201
vn 0.9812 0.1388 0.1340
usemtl Material.002
s off
f 50/1/1 51/2/1 5/3/1 6/4/1
f 48/5/2 1/6/2 19/7/2 54/8/2
f 4/9/3 3/10/3 9/11/3 11/12/3
f 6/13/4 14/14/4 24/15/4 15/16/4
f 49/17/5 48/18/5 3/19/5 4/20/5
f 6/13/6 5/21/6 13/22/6 14/14/6
f 10/23/7 12/24/7 22/25/7
f 50/26/8 6/13/8 15/16/8 52/27/8
f 9/11/9 3/10/9 17/28/9 21/29/9
f 7/30/10 8/31/10 11/12/10 9/11/10
f 16/32/11 15/16/11 24/15/11
f 4/9/12 11/12/12 22/25/12 12/24/12
f 1/33/13 13/22/13 23/34/13 19/35/13
f 1/33/14 2/36/14 14/14/14 13/22/14
f 54/8/15 18/37/15 17/38/15
f 17/28/15 18/39/15 21/29/15
f 20/40/15 19/35/15 23/34/15
f 52/27/16 15/16/16 25/41/16 55/42/16
f 14/43/17 2/44/17 16/45/17 24/46/17
f 7/30/18 9/11/18 21/29/18 18/39/18
f 13/22/19 5/21/19 20/40/19 23/34/19
f 51/47/20 7/48/20 18/37/20 54/8/20
f 49/49/21 4/9/21 12/24/21 53/50/21
f 11/12/22 8/31/22 10/23/22 22/25/22
f 27/51/23 26/52/23 40/53/23 41/54/23
f 15/16/24 16/32/24 29/55/24 30/56/24
f 53/50/25 12/24/25 27/51/25 56/57/25
f 26/52/26 27/51/26 36/58/26 35/59/26
f 32/60/27 30/56/27 37/61/27
f 16/32/28 28/62/28 31/63/28 29/55/28
f 25/41/29 15/16/29 30/56/29 32/60/29
f 28/62/30 25/41/30 32/60/30 31/63/30
f 36/58/31 34/64/31 38/65/31
f 12/24/32 10/23/32 33/66/32 34/64/32
f 27/51/33 12/24/33 34/64/33 36/58/33
f 10/23/34 26/52/34 35/59/34 33/66/34
f 30/56/35 29/55/35 37/61/35
f 29/55/36 31/63/36 37/61/36
f 31/63/37 32/60/37 37/61/37
f 35/59/38 36/58/38 38/65/38
f 33/66/39 35/59/39 38/65/39
f 34/64/40 33/66/40 38/65/40
f 41/67/41 40/68/41 44/69/41 45/70/41
f 56/71/42 27/72/42 41/73/42 58/74/42
f 25/75/43 28/76/43 42/77/43 39/78/43
f 55/79/44 25/75/44 39/78/44 57/80/44
f 43/81/45 46/82/45 47/83/45
f 58/84/46 41/85/46 45/86/46 60/87/46
f 39/88/47 42/89/47 46/90/47 43/91/47
f 57/92/48 39/88/48 43/91/48 59/93/48
f 44/94/49 59/95/49 43/81/49 47/83/49
f 45/96/50 44/94/50 47/83/50
f 46/82/51 60/97/51 45/96/51 47/83/51
f 40/98/48 57/92/48 59/93/48 44/99/48
f 42/89/46 58/84/46 60/87/46 46/90/46
f 26/100/52 55/79/52 57/80/52 40/101/52
f 28/76/42 56/71/42 58/74/42 42/77/42
f 16/32/53 53/50/53 56/57/53 28/62/53
f 2/36/54 49/49/54 53/50/54 16/32/54
f 5/102/55 51/47/55 54/8/55 20/103/55
f 10/23/56 52/27/56 55/42/56 26/52/56
f 19/7/15 20/103/15 54/8/15
f 8/31/57 50/26/57 52/27/57 10/23/57
f 2/104/5 1/105/5 48/18/5 49/17/5
f 3/106/58 48/5/58 54/8/58 17/38/58
f 8/107/1 7/108/1 51/2/1 50/1/1
