# MagicaVoxel @ Ephtracy

# group
o 

# material
mtllib cow_head.mtl
usemtl palette

# normals
vn -1 0 0
vn 1 0 0
vn 0 0 1
vn 0 0 -1
vn 0 -1 0
vn 0 1 0

# texcoords
vt 0.0449219 0.5
vt 0.400391 0.5
vt 0.958984 0.5
vt 0.970703 0.5
vt 0.994141 0.5

# verts
v -0.6 1.8 0.6
v -0.6 1.8 0.4
v -0.6 1.9 0.6
v -0.6 1.9 0.4
v -0.5 1.9 0.6
v -0.5 1.9 0.4
v -0.5 2 0.6
v -0.5 2 0.4
v -0.4 1.4 0.9
v -0.4 1.4 0.7
v -0.4 1.4 0.5
v -0.4 1.4 0.1
v -0.4 1.5 0.7
v -0.4 1.5 0.5
v -0.4 1.8 0.7
v -0.4 1.8 0.2
v -0.4 1.9 0.6
v -0.4 1.9 0.4
v -0.4 2 0.6
v -0.4 2 0.4
v -0.4 2.1 0.9
v -0.4 2.1 0.7
v -0.4 2.1 0.2
v -0.4 2.1 0.1
v -0.3 1 0.2
v -0.3 1 -0.1
v -0.3 1.1 0.3
v -0.3 1.1 0.2
v -0.3 1.1 0
v -0.3 1.1 -0.1
v -0.3 1.3 0.4
v -0.3 1.3 0.3
v -0.3 1.3 0.1
v -0.3 1.3 0
v -0.3 1.4 1.1
v -0.3 1.4 0.9
v -0.3 1.4 0.4
v -0.3 1.4 0.1
v -0.3 1.5 0.1
v -0.3 1.5 0
v -0.3 1.8 1.1
v -0.3 1.8 0.9
v -0.3 2 0.1
v -0.3 2 0
v -0.3 2.1 0.9
v -0.3 2.1 0.7
v -0.3 2.1 0.6
v -0.3 2.1 0.2
v -0.3 2.1 0.1
v -0.3 2.2 0.9
v -0.3 2.2 0.6
v -0.3 2.2 0.1
v -0.2 1 0.3
v -0.2 1 0.2
v -0.2 1.1 0.3
v -0.2 1.1 0.2
v -0.2 1.1 0
v -0.2 1.1 -0.1
v -0.2 1.2 0.4
v -0.2 1.2 0.3
v -0.2 1.2 0
v -0.2 1.2 -0.1
v -0.2 1.3 0.4
v -0.2 1.3 0.3
v -0.2 1.3 0.1
v -0.2 1.3 0
v -0.2 1.4 0.1
v -0.2 1.4 0
v -0.2 2 0.1
v -0.2 2 0
v -0.2 2.1 0.1
v -0.2 2.1 0
v -0.2 2.2 0.4
v -0.2 2.2 0.3
v -0.2 2.3 0.4
v -0.2 2.3 0.3
v -0.1 1.6 1.1
v -0.1 1.6 1
v -0.1 1.7 1.1
v -0.1 1.7 1
v 0.1 2.2 0.4
v 0.1 2.2 0.3
v 0.1 2.3 0.4
v 0.1 2.3 0.3
v 0.2 1.6 1.1
v 0.2 1.6 1
v 0.2 1.7 1.1
v 0.2 1.7 1
v 0.5 1.8 0.6
v 0.5 1.8 0.4
v 0.5 1.9 0.6
v 0.5 1.9 0.4
v -0.5 1.8 0.6
v -0.5 1.8 0.4
v -0.5 1.9 0.6
v -0.5 1.9 0.4
v -0.2 1.6 1.1
v -0.2 1.6 1
v -0.2 1.7 1.1
v -0.2 1.7 1
v -0.1 2.2 0.4
v -0.1 2.2 0.3
v -0.1 2.3 0.4
v -0.1 2.3 0.3
v 0.1 1.6 1.1
v 0.1 1.6 1
v 0.1 1.7 1.1
v 0.1 1.7 1
v 0.2 1 0.3
v 0.2 1 0.2
v 0.2 1.1 0.3
v 0.2 1.1 0.2
v 0.2 1.1 0
v 0.2 1.1 -0.1
v 0.2 1.2 0.4
v 0.2 1.2 0.3
v 0.2 1.2 0
v 0.2 1.2 -0.1
v 0.2 1.3 0.4
v 0.2 1.3 0.3
v 0.2 1.3 0.1
v 0.2 1.3 0
v 0.2 1.4 0.1
v 0.2 1.4 0
v 0.2 2 0.1
v 0.2 2 0
v 0.2 2.1 0.1
v 0.2 2.1 0
v 0.2 2.2 0.4
v 0.2 2.2 0.3
v 0.2 2.3 0.4
v 0.2 2.3 0.3
v 0.3 1 0.2
v 0.3 1 -0.1
v 0.3 1.1 0.3
v 0.3 1.1 0.2
v 0.3 1.1 0
v 0.3 1.1 -0.1
v 0.3 1.3 0.4
v 0.3 1.3 0.3
v 0.3 1.3 0.1
v 0.3 1.3 0
v 0.3 1.4 1.1
v 0.3 1.4 0.9
v 0.3 1.4 0.4
v 0.3 1.4 0.1
v 0.3 1.5 0.9
v 0.3 1.5 0.1
v 0.3 1.5 0
v 0.3 1.6 0.1
v 0.3 1.6 0
v 0.3 1.8 1.1
v 0.3 1.8 0.9
v 0.3 1.9 0.1
v 0.3 1.9 0
v 0.3 2 0.1
v 0.3 2 0
v 0.3 2.1 0.9
v 0.3 2.1 0.8
v 0.3 2.1 0.4
v 0.3 2.1 0.1
v 0.3 2.2 0.9
v 0.3 2.2 0.1
v 0.4 1.4 0.9
v 0.4 1.4 0.7
v 0.4 1.4 0.1
v 0.4 1.5 0.9
v 0.4 1.5 0.7
v 0.4 1.6 0.6
v 0.4 1.6 0.3
v 0.4 1.7 0.7
v 0.4 1.7 0.6
v 0.4 1.9 0.8
v 0.4 1.9 0.7
v 0.4 1.9 0.6
v 0.4 1.9 0.4
v 0.4 1.9 0.3
v 0.4 2 0.6
v 0.4 2 0.4
v 0.4 2.1 0.9
v 0.4 2.1 0.8
v 0.4 2.1 0.4
v 0.4 2.1 0.1
v 0.5 1.9 0.6
v 0.5 1.9 0.4
v 0.5 2 0.6
v 0.5 2 0.4
v 0.6 1.8 0.6
v 0.6 1.8 0.4
v 0.6 1.9 0.6
v 0.6 1.9 0.4
v -0.3 1.4 1.1
v -0.3 1.8 1.1
v -0.2 1.6 1.1
v -0.2 1.7 1.1
v -0.1 1.6 1.1
v -0.1 1.7 1.1
v 0.1 1.6 1.1
v 0.1 1.7 1.1
v 0.2 1.6 1.1
v 0.2 1.7 1.1
v 0.3 1.4 1.1
v 0.3 1.8 1.1
v -0.2 1.6 1
v -0.2 1.7 1
v -0.1 1.6 1
v -0.1 1.7 1
v 0.1 1.6 1
v 0.1 1.7 1
v 0.2 1.6 1
v 0.2 1.7 1
v -0.4 1.4 0.9
v -0.4 2.1 0.9
v -0.3 1.4 0.9
v -0.3 1.8 0.9
v -0.3 2.1 0.9
v -0.3 2.2 0.9
v -0.2 1.8 0.9
v -0.2 2 0.9
v -0.1 1.8 0.9
v -0.1 2 0.9
v -0.1 2.1 0.9
v 0.1 1.8 0.9
v 0.1 2 0.9
v 0.1 2.1 0.9
v 0.1 2.2 0.9
v 0.2 1.8 0.9
v 0.2 2 0.9
v 0.3 1.4 0.9
v 0.3 1.5 0.9
v 0.3 1.8 0.9
v 0.3 2.1 0.9
v 0.3 2.2 0.9
v 0.4 1.4 0.9
v 0.4 1.5 0.9
v 0.4 2.1 0.9
v -0.6 1.8 0.6
v -0.6 1.9 0.6
v -0.5 1.8 0.6
v -0.5 1.9 0.6
v -0.5 2 0.6
v -0.4 1.9 0.6
v -0.4 2 0.6
v 0.4 1.9 0.6
v 0.4 2 0.6
v 0.5 1.8 0.6
v 0.5 1.9 0.6
v 0.5 2 0.6
v 0.6 1.8 0.6
v 0.6 1.9 0.6
v -0.3 1.3 0.4
v -0.3 1.4 0.4
v -0.2 1.2 0.4
v -0.2 1.3 0.4
v -0.2 2.2 0.4
v -0.2 2.3 0.4
v -0.1 2.2 0.4
v -0.1 2.3 0.4
v 0.1 2.2 0.4
v 0.1 2.3 0.4
v 0.2 1.2 0.4
v 0.2 1.3 0.4
v 0.2 2.2 0.4
v 0.2 2.3 0.4
v 0.3 1.3 0.4
v 0.3 1.4 0.4
v -0.3 1.1 0.3
v -0.3 1.3 0.3
v -0.2 1 0.3
v -0.2 1.1 0.3
v -0.2 1.2 0.3
v -0.2 1.3 0.3
v 0.2 1 0.3
v 0.2 1.1 0.3
v 0.2 1.2 0.3
v 0.2 1.3 0.3
v 0.3 1.1 0.3
v 0.3 1.3 0.3
v -0.3 1 0.2
v -0.3 1.1 0.2
v -0.2 1 0.2
v -0.2 1.1 0.2
v 0.2 1 0.2
v 0.2 1.1 0.2
v 0.3 1 0.2
v 0.3 1.1 0.2
v -0.6 1.8 0.4
v -0.6 1.9 0.4
v -0.5 1.8 0.4
v -0.5 1.9 0.4
v -0.5 2 0.4
v -0.4 1.9 0.4
v -0.4 2 0.4
v 0.4 1.9 0.4
v 0.4 2 0.4
v 0.5 1.8 0.4
v 0.5 1.9 0.4
v 0.5 2 0.4
v 0.6 1.8 0.4
v 0.6 1.9 0.4
v -0.2 2.2 0.3
v -0.2 2.3 0.3
v -0.1 2.2 0.3
v -0.1 2.3 0.3
v 0.1 2.2 0.3
v 0.1 2.3 0.3
v 0.2 2.2 0.3
v 0.2 2.3 0.3
v -0.4 1.4 0.1
v -0.4 2.1 0.1
v -0.3 1.3 0.1
v -0.3 1.4 0.1
v -0.3 1.5 0.1
v -0.3 2 0.1
v -0.3 2.1 0.1
v -0.3 2.2 0.1
v -0.2 1.3 0.1
v -0.2 1.4 0.1
v -0.2 1.5 0.1
v -0.2 2 0.1
v -0.2 2.1 0.1
v -5.96046e-08 1.5 0.1
v 0.2 1.3 0.1
v 0.2 1.4 0.1
v 0.2 2 0.1
v 0.2 2.1 0.1
v 0.3 1.3 0.1
v 0.3 1.4 0.1
v 0.3 1.5 0.1
v 0.3 1.6 0.1
v 0.3 1.9 0.1
v 0.3 2 0.1
v 0.3 2.1 0.1
v 0.3 2.2 0.1
v 0.4 1.4 0.1
v 0.4 2.1 0.1
v -0.3 1.1 0
v -0.3 1.3 0
v -0.3 1.5 0
v -0.3 2 0
v -0.2 1.1 0
v -0.2 1.2 0
v -0.2 1.3 0
v -0.2 1.4 0
v -0.2 1.5 0
v -0.2 1.7 0
v -0.2 2 0
v -0.2 2.1 0
v -0.1 1.7 0
v -0.1 1.9 0
v -5.96046e-08 1.5 0
v -5.96046e-08 1.6 0
v 0.2 1.1 0
v 0.2 1.2 0
v 0.2 1.3 0
v 0.2 1.4 0
v 0.2 2 0
v 0.2 2.1 0
v 0.3 1.1 0
v 0.3 1.3 0
v 0.3 1.5 0
v 0.3 1.6 0
v 0.3 1.9 0
v 0.3 2 0
v -0.3 1 -0.1
v -0.3 1.1 -0.1
v -0.2 1.1 -0.1
v -0.2 1.2 -0.1
v 0.2 1.1 -0.1
v 0.2 1.2 -0.1
v 0.3 1 -0.1
v 0.3 1.1 -0.1
v -0.2 1 0.3
v 0.2 1 0.3
v -0.3 1 0.2
v -0.2 1 0.2
v 0.2 1 0.2
v 0.3 1 0.2
v -0.3 1 -0.1
v 0.3 1 -0.1
v -0.3 1.1 0.3
v -0.2 1.1 0.3
v 0.2 1.1 0.3
v 0.3 1.1 0.3
v -0.3 1.1 0.2
v -0.2 1.1 0.2
v 0.2 1.1 0.2
v 0.3 1.1 0.2
v -0.2 1.2 0.4
v 0.2 1.2 0.4
v -0.2 1.2 0.3
v 0.2 1.2 0.3
v -0.3 1.3 0.4
v -0.2 1.3 0.4
v 0.2 1.3 0.4
v 0.3 1.3 0.4
v -0.3 1.3 0.3
v -0.2 1.3 0.3
v 0.2 1.3 0.3
v 0.3 1.3 0.3
v -0.3 1.4 1.1
v 0.3 1.4 1.1
v -0.4 1.4 0.9
v -0.3 1.4 0.9
v 0.2 1.4 0.9
v 0.3 1.4 0.9
v 0.4 1.4 0.9
v -0.4 1.4 0.7
v 0.1 1.4 0.7
v 0.2 1.4 0.7
v 0.4 1.4 0.7
v -0.4 1.4 0.5
v 0.1 1.4 0.5
v -0.3 1.4 0.4
v 0.3 1.4 0.4
v -0.4 1.4 0.1
v -0.3 1.4 0.1
v 0.3 1.4 0.1
v 0.4 1.4 0.1
v -0.3 1.5 0.1
v -0.2 1.5 0.1
v -5.96046e-08 1.5 0.1
v 0.3 1.5 0.1
v -0.3 1.5 0
v -0.2 1.5 0
v -5.96046e-08 1.5 0
v 0.3 1.5 0
v -0.2 1.7 1.1
v -0.1 1.7 1.1
v 0.1 1.7 1.1
v 0.2 1.7 1.1
v -0.2 1.7 1
v -0.1 1.7 1
v 0.1 1.7 1
v 0.2 1.7 1
v -0.6 1.8 0.6
v -0.5 1.8 0.6
v 0.5 1.8 0.6
v 0.6 1.8 0.6
v -0.6 1.8 0.4
v -0.5 1.8 0.4
v 0.5 1.8 0.4
v 0.6 1.8 0.4
v -0.5 1.9 0.6
v -0.4 1.9 0.6
v 0.4 1.9 0.6
v 0.5 1.9 0.6
v -0.5 1.9 0.4
v -0.4 1.9 0.4
v 0.4 1.9 0.4
v 0.5 1.9 0.4
v -0.3 1.1 0
v -0.2 1.1 0
v 0.2 1.1 0
v 0.3 1.1 0
v -0.3 1.1 -0.1
v -0.2 1.1 -0.1
v 0.2 1.1 -0.1
v 0.3 1.1 -0.1
v -0.2 1.2 0
v 0.2 1.2 0
v -0.2 1.2 -0.1
v 0.2 1.2 -0.1
v -0.3 1.3 0.1
v -0.2 1.3 0.1
v 0.2 1.3 0.1
v 0.3 1.3 0.1
v -0.3 1.3 0
v -0.2 1.3 0
v 0.2 1.3 0
v 0.3 1.3 0
v -0.2 1.4 0.1
v 0.2 1.4 0.1
v -0.2 1.4 0
v 0.2 1.4 0
v -0.2 1.6 1.1
v -0.1 1.6 1.1
v 0.1 1.6 1.1
v 0.2 1.6 1.1
v -0.2 1.6 1
v -0.1 1.6 1
v 0.1 1.6 1
v 0.2 1.6 1
v -0.3 1.8 1.1
v 0.3 1.8 1.1
v -0.3 1.8 0.9
v -0.2 1.8 0.9
v -0.1 1.8 0.9
v 0.1 1.8 0.9
v 0.2 1.8 0.9
v 0.3 1.8 0.9
v -0.6 1.9 0.6
v -0.5 1.9 0.6
v 0.5 1.9 0.6
v 0.6 1.9 0.6
v -0.6 1.9 0.4
v -0.5 1.9 0.4
v 0.5 1.9 0.4
v 0.6 1.9 0.4
v -0.5 2 0.6
v -0.4 2 0.6
v 0.4 2 0.6
v 0.5 2 0.6
v -0.5 2 0.4
v -0.4 2 0.4
v 0.4 2 0.4
v 0.5 2 0.4
v -0.3 2 0.1
v -0.2 2 0.1
v 0.2 2 0.1
v 0.3 2 0.1
v -0.3 2 0
v -0.2 2 0
v 0.2 2 0
v 0.3 2 0
v -0.4 2.1 0.9
v -0.3 2.1 0.9
v 0.3 2.1 0.9
v 0.4 2.1 0.9
v 0.3 2.1 0.8
v 0.4 2.1 0.8
v -0.4 2.1 0.7
v -0.3 2.1 0.7
v -0.3 2.1 0.6
v 0.3 2.1 0.4
v 0.4 2.1 0.4
v -0.4 2.1 0.2
v -0.3 2.1 0.2
v -0.4 2.1 0.1
v -0.3 2.1 0.1
v -0.2 2.1 0.1
v 0.2 2.1 0.1
v 0.3 2.1 0.1
v 0.4 2.1 0.1
v -0.2 2.1 0
v 0.2 2.1 0
v -0.3 2.2 0.9
v 0.1 2.2 0.9
v 0.3 2.2 0.9
v -0.3 2.2 0.6
v 0.1 2.2 0.6
v -0.2 2.2 0.4
v -0.1 2.2 0.4
v 0.1 2.2 0.4
v 0.2 2.2 0.4
v -0.2 2.2 0.3
v -0.1 2.2 0.3
v 0.1 2.2 0.3
v 0.2 2.2 0.3
v -0.3 2.2 0.1
v 0.3 2.2 0.1
v -0.2 2.3 0.4
v -0.1 2.3 0.4
v 0.1 2.3 0.4
v 0.2 2.3 0.4
v -0.2 2.3 0.3
v -0.1 2.3 0.3
v 0.1 2.3 0.3
v 0.2 2.3 0.3

# faces
f 3/4/1 2/4/1 1/4/1
f 4/4/1 2/4/1 3/4/1
f 7/4/1 6/4/1 5/4/1
f 8/4/1 6/4/1 7/4/1
f 13/4/1 10/4/1 9/4/1
f 13/5/1 11/5/1 10/5/1
f 14/4/1 12/4/1 11/4/1
f 14/5/1 11/5/1 13/5/1
f 15/4/1 13/4/1 9/4/1
f 15/4/1 14/4/1 13/4/1
f 16/4/1 12/4/1 14/4/1
f 16/4/1 14/4/1 15/4/1
f 17/5/1 16/5/1 15/5/1
f 18/5/1 16/5/1 17/5/1
f 19/5/1 17/5/1 15/5/1
f 20/5/1 16/5/1 18/5/1
f 21/4/1 15/4/1 9/4/1
f 22/5/1 20/5/1 19/5/1
f 22/4/1 15/4/1 21/4/1
f 22/5/1 19/5/1 15/5/1
f 23/4/1 12/4/1 16/4/1
f 23/5/1 20/5/1 22/5/1
f 23/5/1 16/5/1 20/5/1
f 24/4/1 12/4/1 23/4/1
f 28/4/1 26/4/1 25/4/1
f 29/4/1 26/4/1 28/4/1
f 30/4/1 26/4/1 29/4/1
f 32/4/1 28/4/1 27/4/1
f 32/4/1 29/4/1 28/4/1
f 33/4/1 29/4/1 32/4/1
f 34/4/1 29/4/1 33/4/1
f 37/4/1 32/4/1 31/4/1
f 37/4/1 33/4/1 32/4/1
f 38/4/1 33/4/1 37/4/1
f 41/1/1 36/1/1 35/1/1
f 42/1/1 36/1/1 41/1/1
f 43/4/1 40/4/1 39/4/1
f 44/4/1 40/4/1 43/4/1
f 50/5/1 46/5/1 45/5/1
f 50/5/1 47/5/1 46/5/1
f 51/4/1 49/4/1 48/4/1
f 51/5/1 47/5/1 50/5/1
f 51/4/1 48/4/1 47/4/1
f 52/4/1 49/4/1 51/4/1
f 55/4/1 54/4/1 53/4/1
f 56/4/1 54/4/1 55/4/1
f 61/4/1 58/4/1 57/4/1
f 62/4/1 58/4/1 61/4/1
f 63/4/1 60/4/1 59/4/1
f 64/4/1 60/4/1 63/4/1
f 67/4/1 66/4/1 65/4/1
f 68/4/1 66/4/1 67/4/1
f 71/4/1 70/4/1 69/4/1
f 72/4/1 70/4/1 71/4/1
f 75/2/1 74/2/1 73/2/1
f 76/2/1 74/2/1 75/2/1
f 79/1/1 78/1/1 77/1/1
f 80/1/1 78/1/1 79/1/1
f 83/2/1 82/2/1 81/2/1
f 84/2/1 82/2/1 83/2/1
f 87/1/1 86/1/1 85/1/1
f 88/1/1 86/1/1 87/1/1
f 91/4/1 90/4/1 89/4/1
f 92/4/1 90/4/1 91/4/1
f 93/4/2 94/4/2 95/4/2
f 95/4/2 94/4/2 96/4/2
f 97/1/2 98/1/2 99/1/2
f 99/1/2 98/1/2 100/1/2
f 101/2/2 102/2/2 103/2/2
f 103/2/2 102/2/2 104/2/2
f 105/1/2 106/1/2 107/1/2
f 107/1/2 106/1/2 108/1/2
f 109/4/2 110/4/2 111/4/2
f 111/4/2 110/4/2 112/4/2
f 113/4/2 114/4/2 117/4/2
f 117/4/2 114/4/2 118/4/2
f 115/4/2 116/4/2 119/4/2
f 119/4/2 116/4/2 120/4/2
f 121/4/2 122/4/2 123/4/2
f 123/4/2 122/4/2 124/4/2
f 125/4/2 126/4/2 127/4/2
f 127/4/2 126/4/2 128/4/2
f 129/2/2 130/2/2 131/2/2
f 131/2/2 130/2/2 132/2/2
f 133/4/2 134/4/2 136/4/2
f 136/4/2 134/4/2 137/4/2
f 137/4/2 134/4/2 138/4/2
f 135/4/2 136/4/2 140/4/2
f 136/4/2 137/4/2 140/4/2
f 140/4/2 137/4/2 141/4/2
f 141/4/2 137/4/2 142/4/2
f 139/4/2 140/4/2 145/4/2
f 140/4/2 141/4/2 145/4/2
f 145/4/2 141/4/2 146/4/2
f 143/1/2 144/1/2 147/1/2
f 148/4/2 149/4/2 150/4/2
f 150/4/2 149/4/2 151/4/2
f 143/1/2 147/1/2 152/1/2
f 152/1/2 147/1/2 153/1/2
f 150/5/2 151/5/2 154/5/2
f 154/5/2 151/5/2 155/5/2
f 154/4/2 155/4/2 156/4/2
f 156/4/2 155/4/2 157/4/2
f 158/4/2 159/4/2 162/4/2
f 160/4/2 161/4/2 162/4/2
f 159/4/2 160/4/2 162/4/2
f 162/4/2 161/4/2 163/4/2
f 164/5/2 165/5/2 167/5/2
f 165/4/2 166/4/2 168/4/2
f 167/5/2 165/5/2 168/5/2
f 167/4/2 168/4/2 169/4/2
f 168/4/2 166/4/2 169/4/2
f 169/4/2 166/4/2 170/4/2
f 167/4/2 169/4/2 171/4/2
f 169/5/2 170/5/2 172/5/2
f 171/4/2 169/4/2 172/4/2
f 167/4/2 171/4/2 173/4/2
f 171/5/2 172/5/2 174/5/2
f 173/4/2 171/4/2 174/4/2
f 172/5/2 170/5/2 175/5/2
f 174/5/2 172/5/2 175/5/2
f 175/5/2 170/5/2 176/5/2
f 170/4/2 166/4/2 177/4/2
f 176/5/2 170/5/2 177/5/2
f 173/5/2 174/5/2 178/5/2
f 174/5/2 175/5/2 178/5/2
f 176/4/2 177/4/2 179/4/2
f 167/4/2 173/4/2 180/4/2
f 173/5/2 178/5/2 181/5/2
f 180/4/2 173/4/2 181/4/2
f 178/5/2 179/5/2 181/5/2
f 179/4/2 177/4/2 182/4/2
f 181/5/2 179/5/2 182/5/2
f 177/4/2 166/4/2 183/4/2
f 182/4/2 177/4/2 183/4/2
f 184/4/2 185/4/2 186/4/2
f 186/4/2 185/4/2 187/4/2
f 188/4/2 189/4/2 190/4/2
f 190/4/2 189/4/2 191/4/2
f 194/1/3 193/1/3 192/1/3
f 195/1/3 193/1/3 194/1/3
f 196/1/3 194/1/3 192/1/3
f 197/1/3 193/1/3 195/1/3
f 198/1/3 196/1/3 192/1/3
f 198/1/3 197/1/3 196/1/3
f 199/1/3 193/1/3 197/1/3
f 199/1/3 197/1/3 198/1/3
f 200/1/3 198/1/3 192/1/3
f 201/1/3 193/1/3 199/1/3
f 202/1/3 200/1/3 192/1/3
f 202/1/3 201/1/3 200/1/3
f 203/1/3 193/1/3 201/1/3
f 203/1/3 201/1/3 202/1/3
f 206/1/3 205/1/3 204/1/3
f 207/1/3 205/1/3 206/1/3
f 210/1/3 209/1/3 208/1/3
f 211/1/3 209/1/3 210/1/3
f 214/4/3 213/4/3 212/4/3
f 215/4/3 213/4/3 214/4/3
f 216/4/3 213/4/3 215/4/3
f 218/3/3 216/3/3 215/3/3
f 219/3/3 216/3/3 218/3/3
f 220/5/3 219/5/3 218/5/3
f 221/3/3 216/3/3 219/3/3
f 221/5/3 219/5/3 220/5/3
f 222/5/3 217/5/3 216/5/3
f 222/3/3 216/3/3 221/3/3
f 223/4/3 221/4/3 220/4/3
f 223/4/3 222/4/3 221/4/3
f 224/4/3 222/4/3 223/4/3
f 225/5/3 217/5/3 222/5/3
f 225/4/3 222/4/3 224/4/3
f 226/5/3 217/5/3 225/5/3
f 227/5/3 224/5/3 223/5/3
f 228/3/3 225/3/3 224/3/3
f 228/5/3 224/5/3 227/5/3
f 231/3/3 228/3/3 227/3/3
f 232/4/3 226/4/3 225/4/3
f 232/3/3 225/3/3 228/3/3
f 232/3/3 228/3/3 231/3/3
f 233/4/3 226/4/3 232/4/3
f 234/5/3 230/5/3 229/5/3
f 235/4/3 231/4/3 230/4/3
f 235/5/3 230/5/3 234/5/3
f 235/4/3 232/4/3 231/4/3
f 236/4/3 232/4/3 235/4/3
f 239/4/3 238/4/3 237/4/3
f 240/4/3 238/4/3 239/4/3
f 242/4/3 241/4/3 240/4/3
f 243/4/3 241/4/3 242/4/3
f 247/4/3 245/4/3 244/4/3
f 248/4/3 245/4/3 247/4/3
f 249/4/3 247/4/3 246/4/3
f 250/4/3 247/4/3 249/4/3
f 254/4/3 252/4/3 251/4/3
f 257/2/3 256/2/3 255/2/3
f 258/2/3 256/2/3 257/2/3
f 261/4/3 254/4/3 253/4/3
f 262/4/3 252/4/3 254/4/3
f 262/4/3 254/4/3 261/4/3
f 263/2/3 260/2/3 259/2/3
f 264/2/3 260/2/3 263/2/3
f 265/4/3 252/4/3 262/4/3
f 266/4/3 252/4/3 265/4/3
f 270/4/3 268/4/3 267/4/3
f 271/4/3 268/4/3 270/4/3
f 272/4/3 268/4/3 271/4/3
f 273/4/3 270/4/3 269/4/3
f 273/4/3 271/4/3 270/4/3
f 274/4/3 271/4/3 273/4/3
f 275/4/3 271/4/3 274/4/3
f 277/4/3 276/4/3 275/4/3
f 277/4/3 275/4/3 274/4/3
f 278/4/3 276/4/3 277/4/3
f 281/4/3 280/4/3 279/4/3
f 282/4/3 280/4/3 281/4/3
f 285/4/3 284/4/3 283/4/3
f 286/4/3 284/4/3 285/4/3
f 287/4/4 288/4/4 289/4/4
f 289/4/4 288/4/4 290/4/4
f 290/4/4 291/4/4 292/4/4
f 292/4/4 291/4/4 293/4/4
f 294/4/4 295/4/4 297/4/4
f 297/4/4 295/4/4 298/4/4
f 296/4/4 297/4/4 299/4/4
f 299/4/4 297/4/4 300/4/4
f 301/2/4 302/2/4 303/2/4
f 303/2/4 302/2/4 304/2/4
f 305/2/4 306/2/4 307/2/4
f 307/2/4 306/2/4 308/2/4
f 309/4/4 310/4/4 312/4/4
f 312/4/4 310/4/4 313/4/4
f 313/4/4 310/4/4 314/4/4
f 314/4/4 310/4/4 315/4/4
f 311/4/4 312/4/4 317/4/4
f 312/4/4 313/4/4 317/4/4
f 317/4/4 313/4/4 318/4/4
f 318/4/4 313/4/4 319/4/4
f 315/4/4 316/4/4 320/4/4
f 314/4/4 315/4/4 320/4/4
f 320/4/4 316/4/4 321/4/4
f 318/4/4 319/4/4 322/4/4
f 318/4/4 322/4/4 324/4/4
f 321/4/4 316/4/4 326/4/4
f 323/4/4 324/4/4 327/4/4
f 324/4/4 322/4/4 328/4/4
f 327/4/4 324/4/4 328/4/4
f 328/4/4 322/4/4 329/4/4
f 325/4/4 326/4/4 332/4/4
f 326/4/4 316/4/4 333/4/4
f 332/4/4 326/4/4 333/4/4
f 333/4/4 316/4/4 334/4/4
f 330/4/4 331/4/4 335/4/4
f 331/4/4 332/4/4 335/4/4
f 332/4/4 333/4/4 335/4/4
f 329/4/4 330/4/4 335/4/4
f 328/4/4 329/4/4 335/4/4
f 335/4/4 333/4/4 336/4/4
f 337/4/4 338/4/4 341/4/4
f 341/4/4 338/4/4 342/4/4
f 342/4/4 338/4/4 343/4/4
f 339/4/4 340/4/4 345/4/4
f 345/4/4 340/4/4 346/4/4
f 346/4/4 340/4/4 347/4/4
f 347/4/4 348/4/4 349/4/4
f 346/4/4 347/4/4 349/4/4
f 345/5/4 346/5/4 349/5/4
f 349/4/4 348/4/4 350/4/4
f 345/5/4 349/5/4 351/5/4
f 349/5/4 350/5/4 351/5/4
f 351/5/4 350/5/4 352/5/4
f 343/4/4 344/4/4 354/4/4
f 342/4/4 343/4/4 354/4/4
f 354/4/4 344/4/4 355/4/4
f 355/4/4 344/4/4 356/4/4
f 350/4/4 348/4/4 357/4/4
f 357/4/4 348/4/4 358/4/4
f 353/4/4 354/4/4 359/4/4
f 354/4/4 355/4/4 359/4/4
f 359/4/4 355/4/4 360/4/4
f 351/4/4 352/4/4 361/4/4
f 352/5/4 350/5/4 362/5/4
f 361/4/4 352/4/4 362/4/4
f 350/4/4 357/4/4 363/4/4
f 362/5/4 350/5/4 363/5/4
f 363/4/4 357/4/4 364/4/4
f 365/4/4 366/4/4 367/4/4
f 365/4/4 367/4/4 369/4/4
f 367/4/4 368/4/4 369/4/4
f 369/4/4 368/4/4 370/4/4
f 365/4/4 369/4/4 371/4/4
f 371/4/4 369/4/4 372/4/4
f 376/4/5 374/4/5 373/4/5
f 377/4/5 374/4/5 376/4/5
f 379/4/5 376/4/5 375/4/5
f 379/4/5 378/4/5 377/4/5
f 379/4/5 377/4/5 376/4/5
f 380/4/5 378/4/5 379/4/5
f 385/4/5 382/4/5 381/4/5
f 386/4/5 382/4/5 385/4/5
f 387/4/5 384/4/5 383/4/5
f 388/4/5 384/4/5 387/4/5
f 391/4/5 390/4/5 389/4/5
f 392/4/5 390/4/5 391/4/5
f 397/4/5 394/4/5 393/4/5
f 398/4/5 394/4/5 397/4/5
f 399/4/5 396/4/5 395/4/5
f 400/4/5 396/4/5 399/4/5
f 404/1/5 402/1/5 401/1/5
f 405/1/5 402/1/5 404/1/5
f 406/1/5 402/1/5 405/1/5
f 408/4/5 404/4/5 403/4/5
f 408/4/5 405/4/5 404/4/5
f 409/4/5 405/4/5 408/4/5
f 410/5/5 407/5/5 406/5/5
f 410/4/5 405/4/5 409/4/5
f 410/5/5 406/5/5 405/5/5
f 411/5/5 407/5/5 410/5/5
f 412/5/5 409/5/5 408/5/5
f 413/4/5 410/4/5 409/4/5
f 413/5/5 409/5/5 412/5/5
f 413/4/5 411/4/5 410/4/5
f 414/4/5 413/4/5 412/4/5
f 415/4/5 411/4/5 413/4/5
f 415/4/5 413/4/5 414/4/5
f 416/4/5 414/4/5 412/4/5
f 417/4/5 414/4/5 416/4/5
f 418/4/5 411/4/5 415/4/5
f 419/4/5 411/4/5 418/4/5
f 424/4/5 421/4/5 420/4/5
f 425/5/5 422/5/5 421/5/5
f 425/4/5 421/4/5 424/4/5
f 426/4/5 423/4/5 422/4/5
f 426/5/5 422/5/5 425/5/5
f 427/4/5 423/4/5 426/4/5
f 432/1/5 429/1/5 428/1/5
f 433/1/5 429/1/5 432/1/5
f 434/1/5 431/1/5 430/1/5
f 435/1/5 431/1/5 434/1/5
f 440/4/5 437/4/5 436/4/5
f 441/4/5 437/4/5 440/4/5
f 442/4/5 439/4/5 438/4/5
f 443/4/5 439/4/5 442/4/5
f 448/4/5 445/4/5 444/4/5
f 449/4/5 445/4/5 448/4/5
f 450/4/5 447/4/5 446/4/5
f 451/4/5 447/4/5 450/4/5
f 452/4/6 453/4/6 456/4/6
f 456/4/6 453/4/6 457/4/6
f 454/4/6 455/4/6 458/4/6
f 458/4/6 455/4/6 459/4/6
f 460/4/6 461/4/6 462/4/6
f 462/4/6 461/4/6 463/4/6
f 464/4/6 465/4/6 468/4/6
f 468/4/6 465/4/6 469/4/6
f 466/4/6 467/4/6 470/4/6
f 470/4/6 467/4/6 471/4/6
f 472/4/6 473/4/6 474/4/6
f 474/4/6 473/4/6 475/4/6
f 476/1/6 477/1/6 480/1/6
f 480/1/6 477/1/6 481/1/6
f 478/1/6 479/1/6 482/1/6
f 482/1/6 479/1/6 483/1/6
f 484/1/6 485/1/6 486/1/6
f 486/1/6 485/1/6 487/1/6
f 487/1/6 485/1/6 488/1/6
f 488/1/6 485/1/6 489/1/6
f 489/1/6 485/1/6 490/1/6
f 490/1/6 485/1/6 491/1/6
f 492/4/6 493/4/6 496/4/6
f 496/4/6 493/4/6 497/4/6
f 494/4/6 495/4/6 498/4/6
f 498/4/6 495/4/6 499/4/6
f 500/4/6 501/4/6 504/4/6
f 504/4/6 501/4/6 505/4/6
f 502/4/6 503/4/6 506/4/6
f 506/4/6 503/4/6 507/4/6
f 508/4/6 509/4/6 512/4/6
f 512/4/6 509/4/6 513/4/6
f 510/4/6 511/4/6 514/4/6
f 514/4/6 511/4/6 515/4/6
f 518/4/6 519/4/6 520/4/6
f 520/4/6 519/4/6 521/4/6
f 516/4/6 517/4/6 522/4/6
f 522/4/6 517/4/6 523/4/6
f 522/5/6 523/5/6 524/5/6
f 520/5/6 521/5/6 525/5/6
f 525/5/6 521/5/6 526/5/6
f 522/5/6 524/5/6 527/5/6
f 527/5/6 524/5/6 528/5/6
f 527/4/6 528/4/6 529/4/6
f 529/4/6 528/4/6 530/4/6
f 525/4/6 526/4/6 533/4/6
f 533/4/6 526/4/6 534/4/6
f 531/4/6 532/4/6 535/4/6
f 535/4/6 532/4/6 536/4/6
f 537/5/6 538/5/6 540/5/6
f 538/4/6 539/4/6 541/4/6
f 540/5/6 538/5/6 541/5/6
f 540/4/6 541/4/6 542/4/6
f 542/4/6 541/4/6 543/4/6
f 541/4/6 539/4/6 544/4/6
f 543/4/6 541/4/6 544/4/6
f 544/4/6 539/4/6 545/4/6
f 540/4/6 542/4/6 546/4/6
f 543/4/6 544/4/6 547/4/6
f 547/4/6 544/4/6 548/4/6
f 545/4/6 539/4/6 549/4/6
f 547/4/6 548/4/6 550/4/6
f 548/4/6 549/4/6 550/4/6
f 540/4/6 546/4/6 550/4/6
f 546/4/6 547/4/6 550/4/6
f 549/4/6 539/4/6 551/4/6
f 550/4/6 549/4/6 551/4/6
f 552/2/6 553/2/6 556/2/6
f 556/2/6 553/2/6 557/2/6
f 554/2/6 555/2/6 558/2/6
f 558/2/6 555/2/6 559/2/6
