# MagicaVoxel @ Ephtracy

# group
o 

# material
mtllib cow_body.mtl
usemtl palette

# normals
vn -1 0 0
vn 1 0 0
vn 0 0 1
vn 0 0 -1
vn 0 -1 0
vn 0 1 0

# texcoords
vt 0.0449219 0.5
vt 0.970703 0.5
vt 0.994141 0.5

# verts
v -0.5 0.6 0.6
v -0.5 0.6 0.3
v -0.5 0.6 -0.7
v -0.5 0.6 -1
v -0.5 0.7 0.5
v -0.5 0.7 0.3
v -0.5 0.7 0.2
v -0.5 0.7 -0.1
v -0.5 0.7 -0.6
v -0.5 0.7 -0.7
v -0.5 0.8 0.6
v -0.5 0.8 0.5
v -0.5 0.8 0.2
v -0.5 0.8 0.1
v -0.5 0.8 -0.1
v -0.5 0.8 -0.6
v -0.5 0.8 -0.9
v -0.5 0.8 -1
v -0.5 1 -0.2
v -0.5 1 -0.4
v -0.5 1.1 0.3
v -0.5 1.1 0.1
v -0.5 1.1 -0.1
v -0.5 1.1 -0.2
v -0.5 1.1 -0.4
v -0.5 1.1 -0.7
v -0.5 1.1 -0.9
v -0.5 1.1 -1
v -0.5 1.2 0.6
v -0.5 1.2 0.3
v -0.5 1.2 -0.1
v -0.5 1.2 -0.7
v -0.5 1.2 -1
v -0.4 0.6 0.3
v -0.4 0.6 -0.1
v -0.4 0.6 -0.7
v -0.4 0.7 0.3
v -0.4 0.7 0.2
v -0.4 0.7 -0.1
v -0.4 0.7 -0.6
v -0.4 0.7 -0.7
v -0.4 1.2 0.5
v -0.4 1.2 0.3
v -0.4 1.2 -0.1
v -0.4 1.2 -0.7
v -0.4 1.2 -0.9
v -0.4 1.3 0.5
v -0.4 1.3 -0.1
v -0.4 1.3 -0.7
v -0.4 1.3 -0.9
v -0.3 0.5 -0.3
v -0.3 0.5 -0.6
v -0.3 0.6 -0.3
v -0.3 0.6 -0.6
v -0.2 0.4 -0.3
v -0.2 0.4 -0.4
v -0.2 0.4 -0.5
v -0.2 0.4 -0.6
v -0.2 0.5 -0.2
v -0.2 0.5 -0.3
v -0.2 0.5 -0.4
v -0.2 0.5 -0.5
v -0.2 0.5 -0.6
v -0.2 0.5 -0.7
v -0.2 0.6 -0.2
v -0.2 0.6 -0.3
v -0.2 0.6 -0.6
v -0.2 0.6 -0.7
v 0.1 0.4 -0.3
v 0.1 0.4 -0.4
v 0.1 0.4 -0.5
v 0.1 0.4 -0.6
v 0.1 0.5 -0.3
v 0.1 0.5 -0.4
v 0.1 0.5 -0.5
v 0.1 0.5 -0.6
v 0.2 0.6 -0.9
v 0.2 0.6 -1
v 0.2 0.7 -0.9
v 0.2 0.7 -1
v -0.2 0.6 -0.9
v -0.2 0.6 -1
v -0.2 0.7 -0.9
v -0.2 0.7 -1
v -0.1 0.4 -0.3
v -0.1 0.4 -0.4
v -0.1 0.4 -0.5
v -0.1 0.4 -0.6
v -0.1 0.5 -0.3
v -0.1 0.5 -0.4
v -0.1 0.5 -0.5
v -0.1 0.5 -0.6
v 0.2 0.4 -0.3
v 0.2 0.4 -0.4
v 0.2 0.4 -0.5
v 0.2 0.4 -0.6
v 0.2 0.5 -0.2
v 0.2 0.5 -0.3
v 0.2 0.5 -0.4
v 0.2 0.5 -0.5
v 0.2 0.5 -0.6
v 0.2 0.5 -0.7
v 0.2 0.6 -0.2
v 0.2 0.6 -0.3
v 0.2 0.6 -0.6
v 0.2 0.6 -0.7
v 0.3 0.5 -0.3
v 0.3 0.5 -0.6
v 0.3 0.6 -0.3
v 0.3 0.6 -0.6
v 0.4 0.6 0.3
v 0.4 0.6 -0.7
v 0.4 0.7 0.3
v 0.4 0.7 -0.7
v 0.4 1.2 0.5
v 0.4 1.2 0.2
v 0.4 1.2 -0.2
v 0.4 1.2 -0.4
v 0.4 1.2 -0.9
v 0.4 1.3 0.5
v 0.4 1.3 0.2
v 0.4 1.3 -0.2
v 0.4 1.3 -0.4
v 0.4 1.3 -0.9
v 0.5 0.6 0.6
v 0.5 0.6 0.3
v 0.5 0.6 -0.7
v 0.5 0.6 -1
v 0.5 0.7 0.3
v 0.5 0.7 -0.7
v 0.5 0.8 -0.5
v 0.5 0.8 -1
v 0.5 0.9 0.4
v 0.5 0.9 5.96046e-08
v 0.5 1 5.96046e-08
v 0.5 1 -0.2
v 0.5 1.1 0.4
v 0.5 1.1 0.2
v 0.5 1.1 -0.4
v 0.5 1.1 -0.5
v 0.5 1.2 0.6
v 0.5 1.2 0.2
v 0.5 1.2 -0.2
v 0.5 1.2 -0.4
v 0.5 1.2 -1
v -0.5 0.6 0.6
v -0.5 0.8 0.6
v -0.5 1.2 0.6
v -0.4 0.8 0.6
v -0.4 1.2 0.6
v -0.2 0.7 0.6
v -0.2 0.9 0.6
v -0.1 0.9 0.6
v -0.1 1.1 0.6
v 0.1 0.7 0.6
v 0.1 0.8 0.6
v 0.2 0.8 0.6
v 0.2 1.1 0.6
v 0.5 0.6 0.6
v 0.5 1.2 0.6
v -0.4 1.2 0.5
v -0.4 1.3 0.5
v 0.4 1.2 0.5
v 0.4 1.3 0.5
v -0.2 0.5 -0.2
v -0.2 0.6 -0.2
v 0.1 0.6 -0.2
v 0.2 0.5 -0.2
v 0.2 0.6 -0.2
v -0.3 0.5 -0.3
v -0.3 0.6 -0.3
v -0.2 0.4 -0.3
v -0.2 0.5 -0.3
v -0.2 0.6 -0.3
v -0.1 0.4 -0.3
v -0.1 0.5 -0.3
v 0.1 0.4 -0.3
v 0.1 0.5 -0.3
v 0.2 0.4 -0.3
v 0.2 0.5 -0.3
v 0.2 0.6 -0.3
v 0.3 0.5 -0.3
v 0.3 0.6 -0.3
v -0.2 0.4 -0.5
v -0.2 0.5 -0.5
v -0.1 0.4 -0.5
v -0.1 0.5 -0.5
v 0.1 0.4 -0.5
v 0.1 0.5 -0.5
v 0.2 0.4 -0.5
v 0.2 0.5 -0.5
v -0.5 0.6 -0.7
v -0.5 0.7 -0.7
v -0.4 0.6 -0.7
v -0.4 0.7 -0.7
v 0.4 0.6 -0.7
v 0.4 0.7 -0.7
v 0.5 0.6 -0.7
v 0.5 0.7 -0.7
v -0.5 0.6 0.3
v -0.5 0.7 0.3
v -0.4 0.6 0.3
v -0.4 0.7 0.3
v 0.4 0.6 0.3
v 0.4 0.7 0.3
v 0.5 0.6 0.3
v 0.5 0.7 0.3
v -0.2 0.4 -0.4
v -0.2 0.5 -0.4
v -0.1 0.4 -0.4
v -0.1 0.5 -0.4
v 0.1 0.4 -0.4
v 0.1 0.5 -0.4
v 0.2 0.4 -0.4
v 0.2 0.5 -0.4
v -0.3 0.5 -0.6
v -0.3 0.6 -0.6
v -0.2 0.4 -0.6
v -0.2 0.5 -0.6
v -0.2 0.6 -0.6
v -0.1 0.4 -0.6
v -0.1 0.5 -0.6
v 0.1 0.4 -0.6
v 0.1 0.5 -0.6
v 0.2 0.4 -0.6
v 0.2 0.5 -0.6
v 0.2 0.6 -0.6
v 0.3 0.5 -0.6
v 0.3 0.6 -0.6
v -0.2 0.5 -0.7
v -0.2 0.6 -0.7
v 0.2 0.5 -0.7
v 0.2 0.6 -0.7
v -0.4 1.2 -0.9
v -0.4 1.3 -0.9
v -0.2 0.6 -0.9
v -0.2 0.7 -0.9
v 0.2 0.6 -0.9
v 0.2 0.7 -0.9
v 0.2 1.2 -0.9
v 0.2 1.3 -0.9
v 0.3 1.2 -0.9
v 0.4 1.2 -0.9
v 0.4 1.3 -0.9
v -0.5 0.6 -1
v -0.5 0.8 -1
v -0.5 1.1 -1
v -0.5 1.2 -1
v -0.2 0.6 -1
v -0.2 0.7 -1
v -0.2 0.8 -1
v -0.2 1.1 -1
v 0.2 0.6 -1
v 0.2 0.7 -1
v 0.3 0.8 -1
v 0.3 1.2 -1
v 0.5 0.6 -1
v 0.5 0.8 -1
v 0.5 1.2 -1
v -0.2 0.4 -0.3
v -0.1 0.4 -0.3
v 0.1 0.4 -0.3
v 0.2 0.4 -0.3
v -0.2 0.4 -0.4
v -0.1 0.4 -0.4
v 0.1 0.4 -0.4
v 0.2 0.4 -0.4
v -0.2 0.4 -0.5
v -0.1 0.4 -0.5
v 0.1 0.4 -0.5
v 0.2 0.4 -0.5
v -0.2 0.4 -0.6
v -0.1 0.4 -0.6
v 0.1 0.4 -0.6
v 0.2 0.4 -0.6
v -0.2 0.5 -0.2
v 0.2 0.5 -0.2
v -0.3 0.5 -0.3
v -0.2 0.5 -0.3
v -0.1 0.5 -0.3
v 0.1 0.5 -0.3
v 0.2 0.5 -0.3
v 0.3 0.5 -0.3
v -0.2 0.5 -0.4
v -0.1 0.5 -0.4
v 0.1 0.5 -0.4
v 0.2 0.5 -0.4
v -0.2 0.5 -0.5
v -0.1 0.5 -0.5
v 0.1 0.5 -0.5
v 0.2 0.5 -0.5
v -0.3 0.5 -0.6
v -0.2 0.5 -0.6
v -0.1 0.5 -0.6
v 0.1 0.5 -0.6
v 0.2 0.5 -0.6
v 0.3 0.5 -0.6
v -0.2 0.5 -0.7
v 0.2 0.5 -0.7
v -0.5 0.6 0.6
v 0.5 0.6 0.6
v -0.5 0.6 0.3
v -0.4 0.6 0.3
v 0.4 0.6 0.3
v 0.5 0.6 0.3
v -0.1 0.6 0.1
v 0.1 0.6 0.1
v -0.2 0.6 5.96046e-08
v -0.1 0.6 5.96046e-08
v -0.4 0.6 -0.1
v -0.2 0.6 -0.1
v -0.2 0.6 -0.2
v 0.1 0.6 -0.2
v 0.2 0.6 -0.2
v -0.3 0.6 -0.3
v -0.2 0.6 -0.3
v 0.2 0.6 -0.3
v 0.3 0.6 -0.3
v -0.3 0.6 -0.6
v -0.2 0.6 -0.6
v 0.2 0.6 -0.6
v 0.3 0.6 -0.6
v -0.5 0.6 -0.7
v -0.4 0.6 -0.7
v -0.3 0.6 -0.7
v -0.2 0.6 -0.7
v 0.2 0.6 -0.7
v 0.4 0.6 -0.7
v 0.5 0.6 -0.7
v -0.2 0.6 -0.9
v 0.2 0.6 -0.9
v -0.5 0.6 -1
v -0.2 0.6 -1
v 0.2 0.6 -1
v 0.5 0.6 -1
v -0.5 0.7 0.3
v -0.4 0.7 0.3
v 0.4 0.7 0.3
v 0.5 0.7 0.3
v -0.5 0.7 0.2
v -0.4 0.7 0.2
v -0.5 0.7 -0.1
v -0.4 0.7 -0.1
v -0.5 0.7 -0.6
v -0.4 0.7 -0.6
v -0.5 0.7 -0.7
v -0.4 0.7 -0.7
v 0.4 0.7 -0.7
v 0.5 0.7 -0.7
v -0.2 0.7 -0.9
v 0.2 0.7 -0.9
v -0.2 0.7 -1
v 0.2 0.7 -1
v -0.5 1.2 0.6
v -0.4 1.2 0.6
v 0.5 1.2 0.6
v -0.4 1.2 0.5
v 0.4 1.2 0.5
v -0.5 1.2 0.3
v -0.4 1.2 0.3
v 0.4 1.2 0.2
v 0.5 1.2 0.2
v -0.5 1.2 -0.1
v -0.4 1.2 -0.1
v 0.4 1.2 -0.2
v 0.5 1.2 -0.2
v 0.4 1.2 -0.4
v 0.5 1.2 -0.4
v -0.5 1.2 -0.7
v -0.4 1.2 -0.7
v -0.4 1.2 -0.9
v 0.2 1.2 -0.9
v 0.3 1.2 -0.9
v 0.4 1.2 -0.9
v -0.5 1.2 -1
v 0.3 1.2 -1
v 0.5 1.2 -1
v -0.4 1.3 0.5
v 0.4 1.3 0.5
v 0.3 1.3 0.2
v 0.4 1.3 0.2
v -0.4 1.3 -0.1
v -0.2 1.3 -0.1
v 0.3 1.3 -0.2
v 0.4 1.3 -0.2
v -0.3 1.3 -0.4
v -0.2 1.3 -0.4
v 0.2 1.3 -0.4
v 0.4 1.3 -0.4
v -0.4 1.3 -0.7
v -0.3 1.3 -0.7
v -0.4 1.3 -0.9
v 0.2 1.3 -0.9
v 0.4 1.3 -0.9

# faces
f 5/2/1 2/2/1 1/2/1
f 6/2/1 2/2/1 5/2/1
f 10/2/1 4/2/1 3/2/1
f 11/2/1 5/2/1 1/2/1
f 12/3/1 6/3/1 5/3/1
f 12/2/1 5/2/1 11/2/1
f 12/3/1 7/3/1 6/3/1
f 13/2/1 8/2/1 7/2/1
f 13/3/1 7/3/1 12/3/1
f 14/2/1 8/2/1 13/2/1
f 15/3/1 9/3/1 8/3/1
f 15/2/1 8/2/1 14/2/1
f 16/2/1 10/2/1 9/2/1
f 16/3/1 9/3/1 15/3/1
f 17/2/1 4/2/1 10/2/1
f 17/2/1 10/2/1 16/2/1
f 18/2/1 4/2/1 17/2/1
f 19/2/1 15/2/1 14/2/1
f 19/2/1 16/2/1 15/2/1
f 19/2/1 17/2/1 16/2/1
f 20/2/1 17/2/1 19/2/1
f 21/3/1 14/3/1 13/3/1
f 21/3/1 12/3/1 11/3/1
f 21/3/1 13/3/1 12/3/1
f 22/2/1 19/2/1 14/2/1
f 22/3/1 14/3/1 21/3/1
f 23/2/1 19/2/1 22/2/1
f 24/3/1 20/3/1 19/3/1
f 24/2/1 19/2/1 23/2/1
f 25/2/1 17/2/1 20/2/1
f 25/3/1 20/3/1 24/3/1
f 26/2/1 17/2/1 25/2/1
f 27/3/1 18/3/1 17/3/1
f 27/2/1 17/2/1 26/2/1
f 28/3/1 18/3/1 27/3/1
f 29/3/1 21/3/1 11/3/1
f 30/2/1 23/2/1 22/2/1
f 30/3/1 21/3/1 29/3/1
f 30/2/1 22/2/1 21/2/1
f 31/3/1 24/3/1 23/3/1
f 31/2/1 23/2/1 30/2/1
f 31/3/1 26/3/1 25/3/1
f 31/3/1 25/3/1 24/3/1
f 32/2/1 27/2/1 26/2/1
f 32/3/1 26/3/1 31/3/1
f 32/2/1 28/2/1 27/2/1
f 33/2/1 28/2/1 32/2/1
f 37/2/1 35/2/1 34/2/1
f 38/2/1 35/2/1 37/2/1
f 39/3/1 36/3/1 35/3/1
f 39/2/1 35/2/1 38/2/1
f 40/3/1 36/3/1 39/3/1
f 41/3/1 36/3/1 40/3/1
f 47/2/1 43/2/1 42/2/1
f 47/2/1 44/2/1 43/2/1
f 48/3/1 45/3/1 44/3/1
f 48/2/1 44/2/1 47/2/1
f 49/2/1 46/2/1 45/2/1
f 49/3/1 45/3/1 48/3/1
f 50/2/1 46/2/1 49/2/1
f 53/1/1 52/1/1 51/1/1
f 54/1/1 52/1/1 53/1/1
f 60/1/1 56/1/1 55/1/1
f 61/1/1 56/1/1 60/1/1
f 62/1/1 58/1/1 57/1/1
f 63/1/1 58/1/1 62/1/1
f 65/1/1 60/1/1 59/1/1
f 66/1/1 60/1/1 65/1/1
f 67/1/1 64/1/1 63/1/1
f 68/1/1 64/1/1 67/1/1
f 73/1/1 70/1/1 69/1/1
f 74/1/1 70/1/1 73/1/1
f 75/1/1 72/1/1 71/1/1
f 76/1/1 72/1/1 75/1/1
f 79/2/1 78/2/1 77/2/1
f 80/2/1 78/2/1 79/2/1
f 81/2/2 82/2/2 83/2/2
f 83/2/2 82/2/2 84/2/2
f 85/1/2 86/1/2 89/1/2
f 89/1/2 86/1/2 90/1/2
f 87/1/2 88/1/2 91/1/2
f 91/1/2 88/1/2 92/1/2
f 93/1/2 94/1/2 98/1/2
f 98/1/2 94/1/2 99/1/2
f 95/1/2 96/1/2 100/1/2
f 100/1/2 96/1/2 101/1/2
f 97/1/2 98/1/2 103/1/2
f 103/1/2 98/1/2 104/1/2
f 101/1/2 102/1/2 105/1/2
f 105/1/2 102/1/2 106/1/2
f 107/1/2 108/1/2 109/1/2
f 109/1/2 108/1/2 110/1/2
f 111/2/2 112/2/2 113/2/2
f 113/2/2 112/2/2 114/2/2
f 115/2/2 116/2/2 120/2/2
f 116/3/2 117/3/2 121/3/2
f 120/2/2 116/2/2 121/2/2
f 117/2/2 118/2/2 122/2/2
f 121/3/2 117/3/2 122/3/2
f 118/3/2 119/3/2 123/3/2
f 122/2/2 118/2/2 123/2/2
f 123/3/2 119/3/2 124/3/2
f 125/2/2 126/2/2 129/2/2
f 127/2/2 128/2/2 130/2/2
f 129/2/2 130/2/2 131/2/2
f 130/2/2 128/2/2 132/2/2
f 131/2/2 130/2/2 132/2/2
f 125/2/2 129/2/2 133/2/2
f 129/2/2 131/2/2 133/2/2
f 133/2/2 131/2/2 134/2/2
f 133/3/2 134/3/2 135/3/2
f 134/2/2 131/2/2 135/2/2
f 135/2/2 131/2/2 136/2/2
f 125/2/2 133/2/2 137/2/2
f 133/3/2 135/3/2 137/3/2
f 135/3/2 136/3/2 137/3/2
f 137/3/2 136/3/2 138/3/2
f 136/2/2 131/2/2 139/2/2
f 131/3/2 132/3/2 140/3/2
f 139/2/2 131/2/2 140/2/2
f 125/2/2 137/2/2 141/2/2
f 137/2/2 138/2/2 141/2/2
f 138/3/2 136/3/2 142/3/2
f 141/2/2 138/2/2 142/2/2
f 136/2/2 139/2/2 143/2/2
f 142/3/2 136/3/2 143/3/2
f 139/3/2 140/3/2 144/3/2
f 143/2/2 139/2/2 144/2/2
f 140/3/2 132/3/2 145/3/2
f 144/3/2 140/3/2 145/3/2
f 149/2/3 147/2/3 146/2/3
f 149/3/3 148/3/3 147/3/3
f 150/3/3 148/3/3 149/3/3
f 151/2/3 149/2/3 146/2/3
f 151/2/3 150/2/3 149/2/3
f 152/2/3 150/2/3 151/2/3
f 153/3/3 152/3/3 151/3/3
f 153/2/3 150/2/3 152/2/3
f 154/2/3 150/2/3 153/2/3
f 155/2/3 151/2/3 146/2/3
f 155/3/3 153/3/3 151/3/3
f 155/3/3 154/3/3 153/3/3
f 156/3/3 154/3/3 155/3/3
f 157/2/3 156/2/3 155/2/3
f 157/3/3 154/3/3 156/3/3
f 158/2/3 150/2/3 154/2/3
f 158/3/3 154/3/3 157/3/3
f 159/2/3 157/2/3 155/2/3
f 159/2/3 155/2/3 146/2/3
f 159/2/3 158/2/3 157/2/3
f 160/2/3 150/2/3 158/2/3
f 160/2/3 158/2/3 159/2/3
f 163/2/3 162/2/3 161/2/3
f 164/2/3 162/2/3 163/2/3
f 167/1/3 166/1/3 165/1/3
f 168/1/3 167/1/3 165/1/3
f 169/1/3 167/1/3 168/1/3
f 173/1/3 171/1/3 170/1/3
f 174/1/3 171/1/3 173/1/3
f 175/1/3 173/1/3 172/1/3
f 176/1/3 173/1/3 175/1/3
f 179/1/3 178/1/3 177/1/3
f 180/1/3 178/1/3 179/1/3
f 182/1/3 181/1/3 180/1/3
f 183/1/3 181/1/3 182/1/3
f 186/1/3 185/1/3 184/1/3
f 187/1/3 185/1/3 186/1/3
f 190/1/3 189/1/3 188/1/3
f 191/1/3 189/1/3 190/1/3
f 194/2/3 193/2/3 192/2/3
f 195/2/3 193/2/3 194/2/3
f 198/2/3 197/2/3 196/2/3
f 199/2/3 197/2/3 198/2/3
f 200/2/4 201/2/4 202/2/4
f 202/2/4 201/2/4 203/2/4
f 204/2/4 205/2/4 206/2/4
f 206/2/4 205/2/4 207/2/4
f 208/1/4 209/1/4 210/1/4
f 210/1/4 209/1/4 211/1/4
f 212/1/4 213/1/4 214/1/4
f 214/1/4 213/1/4 215/1/4
f 216/1/4 217/1/4 219/1/4
f 219/1/4 217/1/4 220/1/4
f 218/1/4 219/1/4 221/1/4
f 221/1/4 219/1/4 222/1/4
f 223/1/4 224/1/4 225/1/4
f 225/1/4 224/1/4 226/1/4
f 226/1/4 227/1/4 228/1/4
f 228/1/4 227/1/4 229/1/4
f 230/1/4 231/1/4 232/1/4
f 232/1/4 231/1/4 233/1/4
f 236/2/4 237/2/4 238/2/4
f 238/2/4 237/2/4 239/2/4
f 234/2/4 235/2/4 240/2/4
f 240/2/4 235/2/4 241/2/4
f 240/3/4 241/3/4 242/3/4
f 242/3/4 241/3/4 243/3/4
f 243/3/4 241/3/4 244/3/4
f 245/2/4 246/2/4 249/2/4
f 249/2/4 246/2/4 250/2/4
f 246/3/4 247/3/4 251/3/4
f 250/2/4 246/2/4 251/2/4
f 247/2/4 248/2/4 252/2/4
f 251/3/4 247/3/4 252/3/4
f 250/2/4 251/2/4 254/2/4
f 251/2/4 252/2/4 254/2/4
f 254/2/4 252/2/4 255/2/4
f 253/2/4 254/2/4 255/2/4
f 252/2/4 248/2/4 256/2/4
f 255/2/4 252/2/4 256/2/4
f 253/2/4 255/2/4 257/2/4
f 255/3/4 256/3/4 258/3/4
f 257/2/4 255/2/4 258/2/4
f 258/3/4 256/3/4 259/3/4
f 264/1/5 261/1/5 260/1/5
f 265/1/5 261/1/5 264/1/5
f 266/1/5 263/1/5 262/1/5
f 267/1/5 263/1/5 266/1/5
f 272/1/5 269/1/5 268/1/5
f 273/1/5 269/1/5 272/1/5
f 274/1/5 271/1/5 270/1/5
f 275/1/5 271/1/5 274/1/5
f 279/1/5 277/1/5 276/1/5
f 280/1/5 277/1/5 279/1/5
f 281/1/5 277/1/5 280/1/5
f 282/1/5 277/1/5 281/1/5
f 284/1/5 279/1/5 278/1/5
f 285/1/5 281/1/5 280/1/5
f 286/1/5 281/1/5 285/1/5
f 287/1/5 283/1/5 282/1/5
f 288/1/5 286/1/5 285/1/5
f 288/1/5 287/1/5 286/1/5
f 288/1/5 284/1/5 278/1/5
f 288/1/5 285/1/5 284/1/5
f 289/1/5 287/1/5 288/1/5
f 290/1/5 287/1/5 289/1/5
f 291/1/5 283/1/5 287/1/5
f 291/1/5 287/1/5 290/1/5
f 292/1/5 288/1/5 278/1/5
f 293/1/5 288/1/5 292/1/5
f 294/1/5 290/1/5 289/1/5
f 295/1/5 290/1/5 294/1/5
f 296/1/5 283/1/5 291/1/5
f 297/1/5 283/1/5 296/1/5
f 298/1/5 295/1/5 294/1/5
f 298/1/5 296/1/5 295/1/5
f 298/1/5 294/1/5 293/1/5
f 299/1/5 296/1/5 298/1/5
f 302/2/5 301/2/5 300/2/5
f 303/2/5 301/2/5 302/2/5
f 304/2/5 301/2/5 303/2/5
f 305/2/5 301/2/5 304/2/5
f 306/2/5 304/2/5 303/2/5
f 307/2/5 304/2/5 306/2/5
f 308/2/5 306/2/5 303/2/5
f 309/3/5 307/3/5 306/3/5
f 309/2/5 306/2/5 308/2/5
f 310/2/5 308/2/5 303/2/5
f 311/3/5 309/3/5 308/3/5
f 311/2/5 308/2/5 310/2/5
f 312/3/5 311/3/5 310/3/5
f 312/3/5 309/3/5 311/3/5
f 313/2/5 304/2/5 307/2/5
f 313/3/5 309/3/5 312/3/5
f 313/3/5 307/3/5 309/3/5
f 314/2/5 304/2/5 313/2/5
f 315/3/5 312/3/5 310/3/5
f 316/3/5 312/3/5 315/3/5
f 317/2/5 304/2/5 314/2/5
f 318/2/5 304/2/5 317/2/5
f 319/3/5 315/3/5 310/3/5
f 322/2/5 304/2/5 318/2/5
f 324/3/5 319/3/5 310/3/5
f 325/2/5 320/2/5 319/2/5
f 325/3/5 319/3/5 324/3/5
f 326/2/5 320/2/5 325/2/5
f 327/2/5 322/2/5 321/2/5
f 328/2/5 304/2/5 322/2/5
f 328/2/5 322/2/5 327/2/5
f 330/2/5 324/2/5 323/2/5
f 330/2/5 329/2/5 328/2/5
f 330/2/5 328/2/5 327/2/5
f 330/2/5 326/2/5 325/2/5
f 330/2/5 325/2/5 324/2/5
f 330/2/5 327/2/5 326/2/5
f 331/2/5 329/2/5 330/2/5
f 332/2/5 330/2/5 323/2/5
f 333/2/5 330/2/5 332/2/5
f 334/2/5 329/2/5 331/2/5
f 335/2/5 329/2/5 334/2/5
f 340/3/5 337/3/5 336/3/5
f 341/3/5 337/3/5 340/3/5
f 342/2/5 341/2/5 340/2/5
f 343/2/5 341/2/5 342/2/5
f 344/3/5 343/3/5 342/3/5
f 345/3/5 343/3/5 344/3/5
f 346/2/5 345/2/5 344/2/5
f 347/2/5 345/2/5 346/2/5
f 348/2/5 339/2/5 338/2/5
f 349/2/5 339/2/5 348/2/5
f 352/2/5 351/2/5 350/2/5
f 353/2/5 351/2/5 352/2/5
f 354/3/6 355/3/6 357/3/6
f 355/2/6 356/2/6 357/2/6
f 357/2/6 356/2/6 358/2/6
f 354/3/6 357/3/6 359/3/6
f 359/3/6 357/3/6 360/3/6
f 358/2/6 356/2/6 361/2/6
f 361/2/6 356/2/6 362/2/6
f 359/2/6 360/2/6 363/2/6
f 363/2/6 360/2/6 364/2/6
f 361/3/6 362/3/6 365/3/6
f 365/3/6 362/3/6 366/3/6
f 365/2/6 366/2/6 367/2/6
f 367/2/6 366/2/6 368/2/6
f 363/3/6 364/3/6 369/3/6
f 369/3/6 364/3/6 370/3/6
f 369/2/6 370/2/6 371/2/6
f 367/3/6 368/3/6 374/3/6
f 372/2/6 373/2/6 375/2/6
f 369/2/6 371/2/6 375/2/6
f 371/2/6 372/2/6 375/2/6
f 373/3/6 374/3/6 376/3/6
f 375/2/6 373/2/6 376/2/6
f 374/3/6 368/3/6 377/3/6
f 376/3/6 374/3/6 377/3/6
f 378/2/6 379/2/6 380/2/6
f 380/2/6 379/2/6 381/2/6
f 378/2/6 380/2/6 382/2/6
f 382/2/6 380/2/6 383/2/6
f 380/3/6 381/3/6 384/3/6
f 383/2/6 380/2/6 384/2/6
f 384/3/6 381/3/6 385/3/6
f 382/3/6 383/3/6 386/3/6
f 383/2/6 384/2/6 387/2/6
f 386/3/6 383/3/6 387/3/6
f 384/2/6 385/2/6 387/2/6
f 387/2/6 385/2/6 388/2/6
f 388/2/6 385/2/6 389/2/6
f 382/3/6 386/3/6 390/3/6
f 386/2/6 387/2/6 391/2/6
f 390/3/6 386/3/6 391/3/6
f 387/2/6 388/2/6 391/2/6
f 390/2/6 391/2/6 392/2/6
f 388/3/6 389/3/6 393/3/6
f 392/2/6 391/2/6 393/2/6
f 391/2/6 388/2/6 393/2/6
f 393/3/6 389/3/6 394/3/6
