# MagicaVoxel @ Ephtracy

# material
mtllib cow_head.mtl
usemtl palette

# normals
vn -1 0 0
vn 1 0 0
vn 0 0 1
vn 0 0 -1
vn 0 -1 0
vn 0 1 0

# texcoords
vt 0.0292969 0.5
vt 0.435547 0.5
vt 0.904297 0.5
vt 0.958984 0.5
vt 0.966797 0.5
vt 0.994141 0.5

# verts
v -10 31 -15.5
v -10 31 -18.5
v -10 33 -15.5
v -10 33 -18.5
v -9 33 -15.5
v -9 33 -18.5
v -9 34 -15.5
v -9 34 -18.5
v -8 27 -11.5
v -8 27 -23.5
v -8 29 -19.5
v -8 29 -23.5
v -8 30 -11.5
v -8 30 -14.5
v -8 33 -15.5
v -8 33 -18.5
v -8 33 -19.5
v -8 34 -15.5
v -8 34 -17.5
v -8 34 -18.5
v -8 35 -11.5
v -8 35 -14.5
v -8 35 -22.5
v -8 35 -23.5
v -8 37 -17.5
v -8 37 -22.5
v -8 39 -11.5
v -8 39 -23.5
v -7 27 -10.5
v -7 27 -11.5
v -7 27 -23.5
v -7 27 -24.5
v -7 29 -23.5
v -7 30 -10.5
v -7 30 -11.5
v -7 35 -10.5
v -7 35 -11.5
v -7 35 -23.5
v -7 39 -11.5
v -7 39 -23.5
v -7 39 -24.5
v -7 40 -10.5
v -7 40 -23.5
v -4 27 -24.5
v -4 27 -27.5
v -4 32 -24.5
v -4 32 -27.5
v -3 40 -14.5
v -3 40 -16.5
v -3 41 -15.5
v -3 41 -16.5
v -3 42 -14.5
v -3 42 -15.5
v -2 30 -25.5
v -2 30 -26.5
v -2 31 -25.5
v -2 31 -26.5
v -2 39 -14.5
v -2 39 -16.5
v -2 40 -14.5
v -2 40 -16.5
v -1 30 -26.5
v -1 30 -27.5
v -1 31 -26.5
v -1 31 -27.5
v 1 30 -25.5
v 1 30 -26.5
v 1 31 -25.5
v 1 31 -26.5
v 2 30 -26.5
v 2 30 -27.5
v 2 31 -26.5
v 2 31 -27.5
v 2 40 -14.5
v 2 40 -15.5
v 2 40 -16.5
v 2 41 -15.5
v 2 41 -16.5
v 2 42 -14.5
v 2 42 -15.5
v 3 28 -24.5
v 3 28 -26.5
v 3 31 -24.5
v 3 31 -26.5
v 3 39 -14.5
v 3 39 -15.5
v 3 39 -16.5
v 3 40 -14.5
v 3 40 -15.5
v 3 40 -16.5
v 4 28 -23.5
v 4 28 -24.5
v 4 32 -23.5
v 4 32 -24.5
v 7 28 -11.5
v 7 28 -23.5
v 7 34 -11.5
v 7 34 -14.5
v 7 36 -16.5
v 7 36 -19.5
v 7 37 -16.5
v 7 37 -19.5
v 7 39 -11.5
v 7 39 -14.5
v 7 39 -15.5
v 7 39 -23.5
v 8 36 -16.5
v 8 36 -19.5
v 8 37 -16.5
v 8 37 -19.5
v 9 34 -16.5
v 9 34 -19.5
v 9 36 -16.5
v 9 36 -19.5
v -9 31 -15.5
v -9 31 -18.5
v -9 33 -15.5
v -9 33 -18.5
v -8 33 -15.5
v -8 33 -18.5
v -8 34 -15.5
v -8 34 -17.5
v -8 34 -18.5
v -7 28 -11.5
v -7 28 -23.5
v -7 29 -19.5
v -7 29 -23.5
v -7 30 -11.5
v -7 30 -14.5
v -7 33 -15.5
v -7 33 -18.5
v -7 33 -19.5
v -7 34 -15.5
v -7 34 -17.5
v -7 34 -18.5
v -7 35 -11.5
v -7 35 -14.5
v -7 35 -22.5
v -7 35 -23.5
v -7 37 -17.5
v -7 37 -22.5
v -7 39 -11.5
v -7 39 -23.5
v -4 28 -23.5
v -4 28 -24.5
v -4 32 -23.5
v -4 32 -24.5
v -3 28 -24.5
v -3 28 -26.5
v -3 31 -24.5
v -3 31 -26.5
v -3 39 -14.5
v -3 39 -16.5
v -3 40 -14.5
v -3 40 -16.5
v -2 30 -26.5
v -2 30 -27.5
v -2 31 -26.5
v -2 31 -27.5
v -2 40 -14.5
v -2 40 -16.5
v -2 41 -15.5
v -2 41 -16.5
v -2 42 -14.5
v -2 42 -15.5
v -1 30 -25.5
v -1 30 -26.5
v -1 31 -25.5
v -1 31 -26.5
v 1 30 -26.5
v 1 30 -27.5
v 1 31 -26.5
v 1 31 -27.5
v 2 30 -25.5
v 2 30 -26.5
v 2 31 -25.5
v 2 31 -26.5
v 2 39 -14.5
v 2 39 -15.5
v 2 39 -16.5
v 2 40 -14.5
v 2 40 -15.5
v 2 40 -16.5
v 3 40 -14.5
v 3 40 -15.5
v 3 40 -16.5
v 3 41 -15.5
v 3 41 -16.5
v 3 42 -14.5
v 3 42 -15.5
v 4 27 -24.5
v 4 27 -27.5
v 4 32 -24.5
v 4 32 -27.5
v 7 27 -10.5
v 7 27 -11.5
v 7 27 -23.5
v 7 27 -24.5
v 7 34 -10.5
v 7 34 -11.5
v 7 39 -11.5
v 7 39 -14.5
v 7 39 -15.5
v 7 39 -23.5
v 7 39 -24.5
v 7 40 -10.5
v 7 40 -15.5
v 7 40 -23.5
v 8 27 -11.5
v 8 27 -23.5
v 8 34 -11.5
v 8 34 -14.5
v 8 36 -16.5
v 8 36 -19.5
v 8 37 -16.5
v 8 37 -19.5
v 8 39 -11.5
v 8 39 -14.5
v 8 39 -23.5
v 9 36 -16.5
v 9 36 -19.5
v 9 37 -16.5
v 9 37 -19.5
v 10 34 -16.5
v 10 34 -19.5
v 10 36 -16.5
v 10 36 -19.5
v -7 27 -10.5
v -7 30 -10.5
v -7 35 -10.5
v -7 40 -10.5
v -6 29 -10.5
v -6 30 -10.5
v -6 35 -10.5
v -6 36 -10.5
v -3 31 -10.5
v -3 32 -10.5
v -1 32 -10.5
v -1 36 -10.5
v 1 29 -10.5
v 1 31 -10.5
v 1 34 -10.5
v 1 40 -10.5
v 7 27 -10.5
v 7 34 -10.5
v 7 40 -10.5
v -8 27 -11.5
v -8 30 -11.5
v -8 35 -11.5
v -8 39 -11.5
v -7 27 -11.5
v -7 30 -11.5
v -7 35 -11.5
v -7 39 -11.5
v 7 27 -11.5
v 7 34 -11.5
v 7 39 -11.5
v 8 27 -11.5
v 8 34 -11.5
v 8 39 -11.5
v -3 40 -14.5
v -3 42 -14.5
v -2 40 -14.5
v -2 42 -14.5
v 2 40 -14.5
v 2 42 -14.5
v 3 40 -14.5
v 3 42 -14.5
v -10 31 -15.5
v -10 33 -15.5
v -9 31 -15.5
v -9 33 -15.5
v -9 34 -15.5
v -8 33 -15.5
v -8 34 -15.5
v -3 39 -16.5
v -3 40 -16.5
v -2 39 -16.5
v -2 40 -16.5
v 2 39 -16.5
v 2 40 -16.5
v 3 39 -16.5
v 3 40 -16.5
v 8 36 -16.5
v 8 37 -16.5
v 9 34 -16.5
v 9 36 -16.5
v 9 37 -16.5
v 10 34 -16.5
v 10 36 -16.5
v -8 33 -18.5
v -8 34 -18.5
v -7 33 -18.5
v -7 34 -18.5
v 7 36 -19.5
v 7 37 -19.5
v 8 36 -19.5
v 8 37 -19.5
v -7 28 -23.5
v -7 29 -23.5
v -7 35 -23.5
v -7 39 -23.5
v -5 32 -23.5
v -5 38 -23.5
v -4 28 -23.5
v -4 32 -23.5
v -4 37 -23.5
v -1 32 -23.5
v -1 37 -23.5
v -1 38 -23.5
v 1 32 -23.5
v 1 37 -23.5
v 1 38 -23.5
v 4 28 -23.5
v 4 32 -23.5
v 4 37 -23.5
v 5 32 -23.5
v 5 38 -23.5
v 7 28 -23.5
v 7 39 -23.5
v -4 28 -24.5
v -4 32 -24.5
v -3 28 -24.5
v -3 31 -24.5
v -1 32 -24.5
v 1 32 -24.5
v 3 28 -24.5
v 3 31 -24.5
v 4 28 -24.5
v 4 32 -24.5
v -2 30 -25.5
v -2 31 -25.5
v -1 30 -25.5
v -1 31 -25.5
v 1 30 -25.5
v 1 31 -25.5
v 2 30 -25.5
v 2 31 -25.5
v -3 28 -26.5
v -3 31 -26.5
v -2 30 -26.5
v -2 31 -26.5
v -1 30 -26.5
v -1 31 -26.5
v 1 30 -26.5
v 1 31 -26.5
v 2 30 -26.5
v 2 31 -26.5
v 3 28 -26.5
v 3 31 -26.5
v -7 28 -11.5
v -7 30 -11.5
v -7 35 -11.5
v -7 39 -11.5
v -6 29 -11.5
v -6 30 -11.5
v -6 35 -11.5
v -6 36 -11.5
v -3 31 -11.5
v -3 32 -11.5
v -1 32 -11.5
v -1 36 -11.5
v 1 29 -11.5
v 1 31 -11.5
v 1 34 -11.5
v 1 39 -11.5
v 7 28 -11.5
v 7 34 -11.5
v 7 39 -11.5
v -3 39 -14.5
v -3 40 -14.5
v -2 39 -14.5
v -2 40 -14.5
v 2 39 -14.5
v 2 40 -14.5
v 3 39 -14.5
v 3 40 -14.5
v -8 33 -15.5
v -8 34 -15.5
v -7 33 -15.5
v -7 34 -15.5
v -3 41 -15.5
v -3 42 -15.5
v -2 41 -15.5
v -2 42 -15.5
v 2 41 -15.5
v 2 42 -15.5
v 3 41 -15.5
v 3 42 -15.5
v -3 40 -16.5
v -3 41 -16.5
v -2 40 -16.5
v -2 41 -16.5
v 2 40 -16.5
v 2 41 -16.5
v 3 40 -16.5
v 3 41 -16.5
v 7 36 -16.5
v 7 37 -16.5
v 8 36 -16.5
v 8 37 -16.5
v -10 31 -18.5
v -10 33 -18.5
v -9 31 -18.5
v -9 33 -18.5
v -9 34 -18.5
v -8 33 -18.5
v -8 34 -18.5
v 8 36 -19.5
v 8 37 -19.5
v 9 34 -19.5
v 9 36 -19.5
v 9 37 -19.5
v 10 34 -19.5
v 10 36 -19.5
v -8 27 -23.5
v -8 29 -23.5
v -8 35 -23.5
v -8 39 -23.5
v -7 27 -23.5
v -7 29 -23.5
v -7 35 -23.5
v -7 39 -23.5
v -7 40 -23.5
v 7 27 -23.5
v 7 39 -23.5
v 7 40 -23.5
v 8 27 -23.5
v 8 39 -23.5
v -7 27 -24.5
v -7 39 -24.5
v -5 32 -24.5
v -5 38 -24.5
v -4 27 -24.5
v -4 32 -24.5
v -4 37 -24.5
v -1 32 -24.5
v -1 37 -24.5
v -1 38 -24.5
v 1 32 -24.5
v 1 37 -24.5
v 1 38 -24.5
v 4 27 -24.5
v 4 32 -24.5
v 4 37 -24.5
v 5 32 -24.5
v 5 38 -24.5
v 7 27 -24.5
v 7 39 -24.5
v -2 30 -26.5
v -2 31 -26.5
v -1 30 -26.5
v -1 31 -26.5
v 1 30 -26.5
v 1 31 -26.5
v 2 30 -26.5
v 2 31 -26.5
v -4 27 -27.5
v -4 32 -27.5
v -2 30 -27.5
v -2 31 -27.5
v -1 30 -27.5
v -1 31 -27.5
v 1 30 -27.5
v 1 31 -27.5
v 2 30 -27.5
v 2 31 -27.5
v 4 27 -27.5
v 4 32 -27.5
v -7 27 -10.5
v 7 27 -10.5
v -8 27 -11.5
v -7 27 -11.5
v 7 27 -11.5
v 8 27 -11.5
v -8 27 -23.5
v -7 27 -23.5
v 7 27 -23.5
v 8 27 -23.5
v -7 27 -24.5
v -4 27 -24.5
v 4 27 -24.5
v 7 27 -24.5
v -4 27 -27.5
v 4 27 -27.5
v -2 30 -25.5
v -1 30 -25.5
v 1 30 -25.5
v 2 30 -25.5
v -2 30 -26.5
v -1 30 -26.5
v 1 30 -26.5
v 2 30 -26.5
v -10 31 -15.5
v -9 31 -15.5
v -10 31 -18.5
v -9 31 -18.5
v -3 31 -24.5
v 3 31 -24.5
v -2 31 -25.5
v -1 31 -25.5
v 1 31 -25.5
v 2 31 -25.5
v -3 31 -26.5
v -2 31 -26.5
v -1 31 -26.5
v 1 31 -26.5
v 2 31 -26.5
v 3 31 -26.5
v -2 31 -27.5
v -1 31 -27.5
v 1 31 -27.5
v 2 31 -27.5
v -4 32 -23.5
v -1 32 -23.5
v 1 32 -23.5
v 4 32 -23.5
v -4 32 -24.5
v -1 32 -24.5
v 1 32 -24.5
v 4 32 -24.5
v -9 33 -15.5
v -8 33 -15.5
v -9 33 -18.5
v -8 33 -18.5
v -8 34 -15.5
v -7 34 -15.5
v 9 34 -16.5
v 10 34 -16.5
v -8 34 -17.5
v -7 34 -17.5
v -8 34 -18.5
v -7 34 -18.5
v 9 34 -19.5
v 10 34 -19.5
v 8 36 -16.5
v 9 36 -16.5
v 8 36 -19.5
v 9 36 -19.5
v 7 37 -16.5
v 8 37 -16.5
v 7 37 -19.5
v 8 37 -19.5
v -7 39 -11.5
v 1 39 -11.5
v 7 39 -11.5
v -3 39 -14.5
v -2 39 -14.5
v 2 39 -14.5
v 3 39 -14.5
v 7 39 -14.5
v 1 39 -15.5
v 2 39 -15.5
v 3 39 -15.5
v 7 39 -15.5
v -3 39 -16.5
v -2 39 -16.5
v 2 39 -16.5
v 3 39 -16.5
v -5 39 -17.5
v -1 39 -17.5
v -5 39 -21.5
v -1 39 -21.5
v -7 39 -23.5
v 7 39 -23.5
v -3 40 -14.5
v -2 40 -14.5
v 2 40 -14.5
v 3 40 -14.5
v 2 40 -15.5
v 3 40 -15.5
v -3 40 -16.5
v -2 40 -16.5
v 2 40 -16.5
v 3 40 -16.5
v -7 28 -11.5
v 7 28 -11.5
v -7 28 -23.5
v -4 28 -23.5
v 4 28 -23.5
v 7 28 -23.5
v -4 28 -24.5
v -3 28 -24.5
v 3 28 -24.5
v 4 28 -24.5
v -3 28 -26.5
v 3 28 -26.5
v -2 30 -26.5
v -1 30 -26.5
v 1 30 -26.5
v 2 30 -26.5
v -2 30 -27.5
v -1 30 -27.5
v 1 30 -27.5
v 2 30 -27.5
v -4 32 -24.5
v -1 32 -24.5
v 1 32 -24.5
v 4 32 -24.5
v -4 32 -27.5
v 4 32 -27.5
v -10 33 -15.5
v -9 33 -15.5
v -8 33 -15.5
v -7 33 -15.5
v -10 33 -18.5
v -9 33 -18.5
v -8 33 -18.5
v -7 33 -18.5
v -9 34 -15.5
v -8 34 -15.5
v -8 34 -17.5
v -9 34 -18.5
v -8 34 -18.5
v 7 36 -16.5
v 8 36 -16.5
v 9 36 -16.5
v 10 36 -16.5
v 7 36 -19.5
v 8 36 -19.5
v 9 36 -19.5
v 10 36 -19.5
v 8 37 -16.5
v 9 37 -16.5
v 8 37 -19.5
v 9 37 -19.5
v -8 39 -11.5
v -7 39 -11.5
v 7 39 -11.5
v 8 39 -11.5
v 7 39 -14.5
v 8 39 -14.5
v 7 39 -15.5
v -8 39 -23.5
v -7 39 -23.5
v 7 39 -23.5
v 8 39 -23.5
v -7 39 -24.5
v 7 39 -24.5
v -7 40 -10.5
v 1 40 -10.5
v 7 40 -10.5
v -3 40 -14.5
v -2 40 -14.5
v 2 40 -14.5
v 3 40 -14.5
v 1 40 -15.5
v 2 40 -15.5
v 3 40 -15.5
v 7 40 -15.5
v -3 40 -16.5
v -2 40 -16.5
v 2 40 -16.5
v 3 40 -16.5
v -5 40 -17.5
v -1 40 -17.5
v -5 40 -21.5
v -1 40 -21.5
v -7 40 -23.5
v 7 40 -23.5
v -3 41 -15.5
v -2 41 -15.5
v 2 41 -15.5
v 3 41 -15.5
v -3 41 -16.5
v -2 41 -16.5
v 2 41 -16.5
v 3 41 -16.5
v -3 42 -14.5
v -2 42 -14.5
v 2 42 -14.5
v 3 42 -14.5
v -3 42 -15.5
v -2 42 -15.5
v 2 42 -15.5
v 3 42 -15.5

# faces
f 3/5/1 2/5/1 1/5/1
f 4/5/1 2/5/1 3/5/1
f 7/5/1 6/5/1 5/5/1
f 8/5/1 6/5/1 7/5/1
f 11/5/1 10/5/1 9/5/1
f 12/5/1 10/5/1 11/5/1
f 13/5/1 11/5/1 9/5/1
f 14/5/1 11/5/1 13/5/1
f 15/5/1 11/5/1 14/5/1
f 16/5/1 11/5/1 15/5/1
f 17/6/1 12/6/1 11/6/1
f 17/5/1 11/5/1 16/5/1
f 18/5/1 15/5/1 14/5/1
f 20/6/1 17/6/1 16/6/1
f 21/6/1 14/6/1 13/6/1
f 22/5/1 19/5/1 18/5/1
f 22/6/1 14/6/1 21/6/1
f 22/5/1 18/5/1 14/5/1
f 23/6/1 12/6/1 17/6/1
f 23/6/1 20/6/1 19/6/1
f 23/6/1 17/6/1 20/6/1
f 24/6/1 12/6/1 23/6/1
f 25/5/1 19/5/1 22/5/1
f 25/5/1 22/5/1 21/5/1
f 25/6/1 23/6/1 19/6/1
f 26/5/1 24/5/1 23/5/1
f 26/6/1 23/6/1 25/6/1
f 27/5/1 25/5/1 21/5/1
f 27/5/1 26/5/1 25/5/1
f 28/5/1 24/5/1 26/5/1
f 28/5/1 26/5/1 27/5/1
f 33/5/1 32/5/1 31/5/1
f 34/5/1 30/5/1 29/5/1
f 35/5/1 30/5/1 34/5/1
f 36/6/1 35/6/1 34/6/1
f 37/6/1 35/6/1 36/6/1
f 38/5/1 32/5/1 33/5/1
f 39/5/1 37/5/1 36/5/1
f 40/5/1 32/5/1 38/5/1
f 41/5/1 32/5/1 40/5/1
f 42/5/1 39/5/1 36/5/1
f 42/5/1 40/5/1 39/5/1
f 43/5/1 40/5/1 42/5/1
f 46/1/1 45/1/1 44/1/1
f 47/1/1 45/1/1 46/1/1
f 50/2/1 49/2/1 48/2/1
f 51/2/1 49/2/1 50/2/1
f 52/2/1 50/2/1 48/2/1
f 53/2/1 50/2/1 52/2/1
f 56/3/1 55/3/1 54/3/1
f 57/3/1 55/3/1 56/3/1
f 60/5/1 59/5/1 58/5/1
f 61/5/1 59/5/1 60/5/1
f 64/1/1 63/1/1 62/1/1
f 65/1/1 63/1/1 64/1/1
f 68/3/1 67/3/1 66/3/1
f 69/3/1 67/3/1 68/3/1
f 72/1/1 71/1/1 70/1/1
f 73/1/1 71/1/1 72/1/1
f 77/2/1 75/2/1 74/2/1
f 77/2/1 76/2/1 75/2/1
f 78/2/1 76/2/1 77/2/1
f 79/2/1 77/2/1 74/2/1
f 80/2/1 77/2/1 79/2/1
f 83/1/1 82/1/1 81/1/1
f 84/1/1 82/1/1 83/1/1
f 88/6/1 86/6/1 85/6/1
f 89/5/1 87/5/1 86/5/1
f 89/6/1 86/6/1 88/6/1
f 90/5/1 87/5/1 89/5/1
f 93/5/1 92/5/1 91/5/1
f 94/5/1 92/5/1 93/5/1
f 97/5/1 96/5/1 95/5/1
f 98/5/1 96/5/1 97/5/1
f 99/5/1 96/5/1 98/5/1
f 100/5/1 96/5/1 99/5/1
f 101/5/1 99/5/1 98/5/1
f 102/5/1 96/5/1 100/5/1
f 103/6/1 98/6/1 97/6/1
f 104/5/1 102/5/1 101/5/1
f 104/6/1 98/6/1 103/6/1
f 104/5/1 101/5/1 98/5/1
f 105/5/1 102/5/1 104/5/1
f 106/5/1 96/5/1 102/5/1
f 106/5/1 102/5/1 105/5/1
f 109/5/1 108/5/1 107/5/1
f 110/5/1 108/5/1 109/5/1
f 113/5/1 112/5/1 111/5/1
f 114/5/1 112/5/1 113/5/1
f 115/5/2 116/5/2 117/5/2
f 117/5/2 116/5/2 118/5/2
f 119/5/2 120/5/2 121/5/2
f 121/5/2 120/5/2 122/5/2
f 122/5/2 120/5/2 123/5/2
f 124/5/2 125/5/2 126/5/2
f 126/5/2 125/5/2 127/5/2
f 124/5/2 126/5/2 128/5/2
f 128/5/2 126/5/2 129/5/2
f 129/5/2 126/5/2 130/5/2
f 130/5/2 126/5/2 131/5/2
f 126/6/2 127/6/2 132/6/2
f 131/5/2 126/5/2 132/5/2
f 129/5/2 130/5/2 133/5/2
f 131/6/2 132/6/2 135/6/2
f 128/6/2 129/6/2 136/6/2
f 133/5/2 134/5/2 137/5/2
f 136/6/2 129/6/2 137/6/2
f 129/5/2 133/5/2 137/5/2
f 132/6/2 127/6/2 138/6/2
f 134/6/2 135/6/2 138/6/2
f 135/6/2 132/6/2 138/6/2
f 138/6/2 127/6/2 139/6/2
f 137/5/2 134/5/2 140/5/2
f 136/5/2 137/5/2 140/5/2
f 134/6/2 138/6/2 140/6/2
f 138/5/2 139/5/2 141/5/2
f 140/6/2 138/6/2 141/6/2
f 136/5/2 140/5/2 142/5/2
f 140/5/2 141/5/2 142/5/2
f 141/5/2 139/5/2 143/5/2
f 142/5/2 141/5/2 143/5/2
f 144/5/2 145/5/2 146/5/2
f 146/5/2 145/5/2 147/5/2
f 148/1/2 149/1/2 150/1/2
f 150/1/2 149/1/2 151/1/2
f 152/5/2 153/5/2 154/5/2
f 154/5/2 153/5/2 155/5/2
f 156/1/2 157/1/2 158/1/2
f 158/1/2 157/1/2 159/1/2
f 160/2/2 161/2/2 162/2/2
f 162/2/2 161/2/2 163/2/2
f 160/2/2 162/2/2 164/2/2
f 164/2/2 162/2/2 165/2/2
f 166/3/2 167/3/2 168/3/2
f 168/3/2 167/3/2 169/3/2
f 170/1/2 171/1/2 172/1/2
f 172/1/2 171/1/2 173/1/2
f 174/3/2 175/3/2 176/3/2
f 176/3/2 175/3/2 177/3/2
f 178/6/2 179/6/2 181/6/2
f 179/5/2 180/5/2 182/5/2
f 181/6/2 179/6/2 182/6/2
f 182/5/2 180/5/2 183/5/2
f 184/2/2 185/2/2 187/2/2
f 185/2/2 186/2/2 187/2/2
f 187/2/2 186/2/2 188/2/2
f 184/2/2 187/2/2 189/2/2
f 189/2/2 187/2/2 190/2/2
f 191/1/2 192/1/2 193/1/2
f 193/1/2 192/1/2 194/1/2
f 195/5/2 196/5/2 199/5/2
f 199/5/2 196/5/2 200/5/2
f 199/6/2 200/6/2 201/6/2
f 197/5/2 198/5/2 204/5/2
f 204/5/2 198/5/2 205/5/2
f 202/6/2 203/6/2 206/6/2
f 199/6/2 201/6/2 206/6/2
f 201/6/2 202/6/2 206/6/2
f 203/5/2 204/5/2 207/5/2
f 206/6/2 203/6/2 207/6/2
f 207/5/2 204/5/2 208/5/2
f 209/5/2 210/5/2 211/5/2
f 211/5/2 210/5/2 212/5/2
f 212/5/2 210/5/2 213/5/2
f 213/5/2 210/5/2 214/5/2
f 212/5/2 213/5/2 215/5/2
f 214/5/2 210/5/2 216/5/2
f 211/6/2 212/6/2 217/6/2
f 215/5/2 216/5/2 218/5/2
f 217/6/2 212/6/2 218/6/2
f 212/5/2 215/5/2 218/5/2
f 216/5/2 210/5/2 219/5/2
f 218/5/2 216/5/2 219/5/2
f 220/5/2 221/5/2 222/5/2
f 222/5/2 221/5/2 223/5/2
f 224/5/2 225/5/2 226/5/2
f 226/5/2 225/5/2 227/5/2
f 232/5/3 229/5/3 228/5/3
f 233/6/3 230/6/3 229/6/3
f 233/5/3 229/5/3 232/5/3
f 234/5/3 231/5/3 230/5/3
f 234/6/3 230/6/3 233/6/3
f 235/5/3 231/5/3 234/5/3
f 236/6/3 233/6/3 232/6/3
f 236/6/3 234/6/3 233/6/3
f 236/6/3 235/6/3 234/6/3
f 237/6/3 235/6/3 236/6/3
f 238/5/3 237/5/3 236/5/3
f 238/6/3 235/6/3 237/6/3
f 239/5/3 231/5/3 235/5/3
f 239/6/3 235/6/3 238/6/3
f 240/5/3 232/5/3 228/5/3
f 240/6/3 236/6/3 232/6/3
f 241/5/3 238/5/3 236/5/3
f 241/6/3 236/6/3 240/6/3
f 241/5/3 239/5/3 238/5/3
f 242/5/3 239/5/3 241/5/3
f 243/5/3 231/5/3 239/5/3
f 243/5/3 239/5/3 242/5/3
f 244/5/3 240/5/3 228/5/3
f 244/5/3 242/5/3 241/5/3
f 244/5/3 241/5/3 240/5/3
f 245/6/3 243/6/3 242/6/3
f 245/5/3 242/5/3 244/5/3
f 246/6/3 243/6/3 245/6/3
f 251/5/3 248/5/3 247/5/3
f 252/6/3 249/6/3 248/6/3
f 252/5/3 248/5/3 251/5/3
f 253/5/3 250/5/3 249/5/3
f 253/6/3 249/6/3 252/6/3
f 254/5/3 250/5/3 253/5/3
f 258/5/3 256/5/3 255/5/3
f 259/6/3 257/6/3 256/6/3
f 259/5/3 256/5/3 258/5/3
f 260/6/3 257/6/3 259/6/3
f 263/2/3 262/2/3 261/2/3
f 264/2/3 262/2/3 263/2/3
f 267/2/3 266/2/3 265/2/3
f 268/2/3 266/2/3 267/2/3
f 271/5/3 270/5/3 269/5/3
f 272/5/3 270/5/3 271/5/3
f 274/5/3 273/5/3 272/5/3
f 275/5/3 273/5/3 274/5/3
f 278/5/3 277/5/3 276/5/3
f 279/5/3 277/5/3 278/5/3
f 282/5/3 281/5/3 280/5/3
f 283/5/3 281/5/3 282/5/3
f 287/5/3 285/5/3 284/5/3
f 288/5/3 285/5/3 287/5/3
f 289/5/3 287/5/3 286/5/3
f 290/5/3 287/5/3 289/5/3
f 293/6/3 292/6/3 291/6/3
f 294/6/3 292/6/3 293/6/3
f 297/5/3 296/5/3 295/5/3
f 298/5/3 296/5/3 297/5/3
f 303/5/3 300/5/3 299/5/3
f 303/5/3 302/5/3 301/5/3
f 303/5/3 301/5/3 300/5/3
f 304/5/3 302/5/3 303/5/3
f 305/5/3 303/5/3 299/5/3
f 306/4/3 304/4/3 303/4/3
f 306/5/3 303/5/3 305/5/3
f 307/4/3 304/4/3 306/4/3
f 308/6/3 307/6/3 306/6/3
f 309/4/3 304/4/3 307/4/3
f 309/6/3 307/6/3 308/6/3
f 310/5/3 302/5/3 304/5/3
f 310/4/3 304/4/3 309/4/3
f 311/5/3 309/5/3 308/5/3
f 311/5/3 310/5/3 309/5/3
f 312/5/3 310/5/3 311/5/3
f 313/5/3 302/5/3 310/5/3
f 313/5/3 310/5/3 312/5/3
f 315/6/3 312/6/3 311/6/3
f 316/4/3 313/4/3 312/4/3
f 316/6/3 312/6/3 315/6/3
f 317/5/3 315/5/3 314/5/3
f 317/4/3 316/4/3 315/4/3
f 318/5/3 302/5/3 313/5/3
f 318/4/3 316/4/3 317/4/3
f 318/4/3 313/4/3 316/4/3
f 319/5/3 317/5/3 314/5/3
f 319/5/3 318/5/3 317/5/3
f 320/5/3 302/5/3 318/5/3
f 320/5/3 318/5/3 319/5/3
f 323/1/3 322/1/3 321/1/3
f 324/1/3 322/1/3 323/1/3
f 325/1/3 322/1/3 324/1/3
f 326/1/3 325/1/3 324/1/3
f 328/1/3 326/1/3 324/1/3
f 329/1/3 328/1/3 327/1/3
f 330/1/3 326/1/3 328/1/3
f 330/1/3 328/1/3 329/1/3
f 333/3/3 332/3/3 331/3/3
f 334/3/3 332/3/3 333/3/3
f 337/3/3 336/3/3 335/3/3
f 338/3/3 336/3/3 337/3/3
f 341/1/3 340/1/3 339/1/3
f 342/1/3 340/1/3 341/1/3
f 343/1/3 341/1/3 339/1/3
f 345/1/3 343/1/3 339/1/3
f 345/1/3 344/1/3 343/1/3
f 346/1/3 344/1/3 345/1/3
f 347/1/3 345/1/3 339/1/3
f 349/1/3 347/1/3 339/1/3
f 349/1/3 348/1/3 347/1/3
f 350/1/3 348/1/3 349/1/3
f 351/5/4 352/5/4 355/5/4
f 352/6/4 353/6/4 356/6/4
f 355/5/4 352/5/4 356/5/4
f 353/5/4 354/5/4 357/5/4
f 356/6/4 353/6/4 357/6/4
f 357/5/4 354/5/4 358/5/4
f 355/6/4 356/6/4 359/6/4
f 356/6/4 357/6/4 359/6/4
f 357/6/4 358/6/4 359/6/4
f 359/6/4 358/6/4 360/6/4
f 359/5/4 360/5/4 361/5/4
f 360/6/4 358/6/4 361/6/4
f 358/5/4 354/5/4 362/5/4
f 361/6/4 358/6/4 362/6/4
f 351/5/4 355/5/4 363/5/4
f 355/6/4 359/6/4 363/6/4
f 359/5/4 361/5/4 364/5/4
f 363/6/4 359/6/4 364/6/4
f 361/5/4 362/5/4 364/5/4
f 364/5/4 362/5/4 365/5/4
f 362/5/4 354/5/4 366/5/4
f 365/5/4 362/5/4 366/5/4
f 351/5/4 363/5/4 367/5/4
f 364/5/4 365/5/4 367/5/4
f 363/5/4 364/5/4 367/5/4
f 365/6/4 366/6/4 368/6/4
f 367/5/4 365/5/4 368/5/4
f 368/6/4 366/6/4 369/6/4
f 370/5/4 371/5/4 372/5/4
f 372/5/4 371/5/4 373/5/4
f 374/6/4 375/6/4 376/6/4
f 376/6/4 375/6/4 377/6/4
f 378/5/4 379/5/4 380/5/4
f 380/5/4 379/5/4 381/5/4
f 382/2/4 383/2/4 384/2/4
f 384/2/4 383/2/4 385/2/4
f 386/2/4 387/2/4 388/2/4
f 388/2/4 387/2/4 389/2/4
f 390/2/4 391/2/4 392/2/4
f 392/2/4 391/2/4 393/2/4
f 394/2/4 395/2/4 396/2/4
f 396/2/4 395/2/4 397/2/4
f 398/5/4 399/5/4 400/5/4
f 400/5/4 399/5/4 401/5/4
f 402/5/4 403/5/4 404/5/4
f 404/5/4 403/5/4 405/5/4
f 405/5/4 406/5/4 407/5/4
f 407/5/4 406/5/4 408/5/4
f 409/5/4 410/5/4 412/5/4
f 412/5/4 410/5/4 413/5/4
f 411/5/4 412/5/4 414/5/4
f 414/5/4 412/5/4 415/5/4
f 416/5/4 417/5/4 420/5/4
f 417/6/4 418/6/4 421/6/4
f 420/5/4 417/5/4 421/5/4
f 418/5/4 419/5/4 422/5/4
f 421/6/4 418/6/4 422/6/4
f 422/5/4 419/5/4 423/5/4
f 423/5/4 424/5/4 426/5/4
f 426/5/4 424/5/4 427/5/4
f 425/5/4 426/5/4 428/5/4
f 428/5/4 426/5/4 429/5/4
f 430/5/4 431/5/4 432/5/4
f 432/5/4 431/5/4 433/5/4
f 430/5/4 432/5/4 434/5/4
f 432/4/4 433/4/4 435/4/4
f 434/5/4 432/5/4 435/5/4
f 435/4/4 433/4/4 436/4/4
f 435/6/4 436/6/4 437/6/4
f 436/4/4 433/4/4 438/4/4
f 437/6/4 436/6/4 438/6/4
f 433/5/4 431/5/4 439/5/4
f 438/4/4 433/4/4 439/4/4
f 437/5/4 438/5/4 440/5/4
f 438/5/4 439/5/4 440/5/4
f 440/5/4 439/5/4 441/5/4
f 439/5/4 431/5/4 442/5/4
f 441/5/4 439/5/4 442/5/4
f 440/6/4 441/6/4 444/6/4
f 441/4/4 442/4/4 445/4/4
f 444/6/4 441/6/4 445/6/4
f 443/5/4 444/5/4 446/5/4
f 444/4/4 445/4/4 446/4/4
f 442/5/4 431/5/4 447/5/4
f 446/4/4 445/4/4 447/4/4
f 445/4/4 442/4/4 447/4/4
f 443/5/4 446/5/4 448/5/4
f 446/5/4 447/5/4 448/5/4
f 447/5/4 431/5/4 449/5/4
f 448/5/4 447/5/4 449/5/4
f 450/3/4 451/3/4 452/3/4
f 452/3/4 451/3/4 453/3/4
f 454/3/4 455/3/4 456/3/4
f 456/3/4 455/3/4 457/3/4
f 458/1/4 459/1/4 460/1/4
f 460/1/4 459/1/4 461/1/4
f 458/1/4 460/1/4 462/1/4
f 461/1/4 459/1/4 463/1/4
f 458/1/4 462/1/4 464/1/4
f 462/1/4 463/1/4 464/1/4
f 463/1/4 459/1/4 465/1/4
f 464/1/4 463/1/4 465/1/4
f 458/1/4 464/1/4 466/1/4
f 465/1/4 459/1/4 467/1/4
f 458/1/4 466/1/4 468/1/4
f 466/1/4 467/1/4 468/1/4
f 467/1/4 459/1/4 469/1/4
f 468/1/4 467/1/4 469/1/4
f 473/5/5 471/5/5 470/5/5
f 474/5/5 471/5/5 473/5/5
f 476/5/5 473/5/5 472/5/5
f 476/5/5 475/5/5 474/5/5
f 476/5/5 474/5/5 473/5/5
f 477/5/5 475/5/5 476/5/5
f 478/5/5 475/5/5 477/5/5
f 479/5/5 475/5/5 478/5/5
f 480/5/5 478/5/5 477/5/5
f 481/5/5 478/5/5 480/5/5
f 482/5/5 478/5/5 481/5/5
f 483/5/5 478/5/5 482/5/5
f 484/1/5 482/1/5 481/1/5
f 485/1/5 482/1/5 484/1/5
f 490/3/5 487/3/5 486/3/5
f 491/3/5 487/3/5 490/3/5
f 492/3/5 489/3/5 488/3/5
f 493/3/5 489/3/5 492/3/5
f 496/5/5 495/5/5 494/5/5
f 497/5/5 495/5/5 496/5/5
f 500/1/5 499/1/5 498/1/5
f 501/1/5 499/1/5 500/1/5
f 502/1/5 499/1/5 501/1/5
f 503/1/5 499/1/5 502/1/5
f 504/1/5 500/1/5 498/1/5
f 505/1/5 500/1/5 504/1/5
f 506/1/5 502/1/5 501/1/5
f 507/1/5 502/1/5 506/1/5
f 508/1/5 499/1/5 503/1/5
f 509/1/5 499/1/5 508/1/5
f 510/1/5 506/1/5 505/1/5
f 511/1/5 506/1/5 510/1/5
f 512/1/5 508/1/5 507/1/5
f 513/1/5 508/1/5 512/1/5
f 518/6/5 515/6/5 514/6/5
f 519/5/5 516/5/5 515/5/5
f 519/6/5 515/6/5 518/6/5
f 520/6/5 517/6/5 516/6/5
f 520/5/5 516/5/5 519/5/5
f 521/6/5 517/6/5 520/6/5
f 524/5/5 523/5/5 522/5/5
f 525/5/5 523/5/5 524/5/5
f 530/5/5 527/5/5 526/5/5
f 531/5/5 527/5/5 530/5/5
f 532/6/5 531/6/5 530/6/5
f 533/6/5 531/6/5 532/6/5
f 534/5/5 529/5/5 528/5/5
f 535/5/5 529/5/5 534/5/5
f 538/5/5 537/5/5 536/5/5
f 539/5/5 537/5/5 538/5/5
f 542/5/5 541/5/5 540/5/5
f 543/5/5 541/5/5 542/5/5
f 547/5/5 545/5/5 544/5/5
f 548/5/5 545/5/5 547/5/5
f 549/6/5 546/6/5 545/6/5
f 550/6/5 546/6/5 549/6/5
f 551/6/5 546/6/5 550/6/5
f 552/5/5 545/5/5 548/5/5
f 552/6/5 549/6/5 545/6/5
f 553/6/5 549/6/5 552/6/5
f 554/6/5 551/6/5 550/6/5
f 555/6/5 551/6/5 554/6/5
f 556/5/5 547/5/5 544/5/5
f 557/5/5 553/5/5 552/5/5
f 557/5/5 552/5/5 548/5/5
f 558/5/5 553/5/5 557/5/5
f 559/5/5 555/5/5 554/5/5
f 560/5/5 556/5/5 544/5/5
f 560/5/5 559/5/5 558/5/5
f 560/5/5 558/5/5 557/5/5
f 560/5/5 557/5/5 556/5/5
f 561/5/5 559/5/5 560/5/5
f 562/5/5 560/5/5 544/5/5
f 562/6/5 561/6/5 560/6/5
f 563/5/5 559/5/5 561/5/5
f 563/6/5 561/6/5 562/6/5
f 564/5/5 562/5/5 544/5/5
f 564/5/5 563/5/5 562/5/5
f 565/5/5 555/5/5 559/5/5
f 565/5/5 563/5/5 564/5/5
f 565/5/5 559/5/5 563/5/5
f 570/2/5 569/2/5 568/2/5
f 571/2/5 569/2/5 570/2/5
f 572/2/5 567/2/5 566/2/5
f 573/2/5 567/2/5 572/2/5
f 574/2/5 571/2/5 570/2/5
f 575/2/5 571/2/5 574/2/5
f 576/5/6 577/5/6 578/5/6
f 578/5/6 577/5/6 579/5/6
f 579/5/6 577/5/6 580/5/6
f 580/5/6 577/5/6 581/5/6
f 579/5/6 580/5/6 582/5/6
f 582/5/6 580/5/6 583/5/6
f 583/5/6 580/5/6 584/5/6
f 584/5/6 580/5/6 585/5/6
f 583/1/6 584/1/6 586/1/6
f 586/1/6 584/1/6 587/1/6
f 588/1/6 589/1/6 592/1/6
f 592/1/6 589/1/6 593/1/6
f 590/1/6 591/1/6 594/1/6
f 594/1/6 591/1/6 595/1/6
f 596/1/6 597/1/6 600/1/6
f 598/1/6 599/1/6 600/1/6
f 597/1/6 598/1/6 600/1/6
f 600/1/6 599/1/6 601/1/6
f 602/5/6 603/5/6 606/5/6
f 606/5/6 603/5/6 607/5/6
f 604/5/6 605/5/6 608/5/6
f 608/5/6 605/5/6 609/5/6
f 610/5/6 611/5/6 612/5/6
f 610/5/6 612/5/6 613/5/6
f 613/5/6 612/5/6 614/5/6
f 615/5/6 616/5/6 619/5/6
f 619/5/6 616/5/6 620/5/6
f 617/5/6 618/5/6 621/5/6
f 621/5/6 618/5/6 622/5/6
f 623/5/6 624/5/6 625/5/6
f 625/5/6 624/5/6 626/5/6
f 629/6/6 630/6/6 631/6/6
f 631/6/6 630/6/6 632/6/6
f 631/5/6 632/5/6 633/5/6
f 627/5/6 628/5/6 634/5/6
f 634/5/6 628/5/6 635/5/6
f 633/5/6 632/5/6 636/5/6
f 636/5/6 632/5/6 637/5/6
f 635/5/6 636/5/6 638/5/6
f 638/5/6 636/5/6 639/5/6
f 640/5/6 641/5/6 643/5/6
f 643/5/6 641/5/6 644/5/6
f 641/6/6 642/6/6 645/6/6
f 645/6/6 642/6/6 646/6/6
f 644/5/6 641/5/6 647/5/6
f 641/6/6 645/6/6 647/6/6
f 647/6/6 645/6/6 648/6/6
f 646/6/6 642/6/6 649/6/6
f 649/6/6 642/6/6 650/6/6
f 640/5/6 643/5/6 651/5/6
f 647/5/6 648/5/6 652/5/6
f 644/5/6 647/5/6 652/5/6
f 652/5/6 648/5/6 653/5/6
f 649/5/6 650/5/6 654/5/6
f 640/5/6 651/5/6 655/5/6
f 653/5/6 654/5/6 655/5/6
f 652/5/6 653/5/6 655/5/6
f 651/5/6 652/5/6 655/5/6
f 655/5/6 654/5/6 656/5/6
f 640/5/6 655/5/6 657/5/6
f 655/6/6 656/6/6 657/6/6
f 656/5/6 654/5/6 658/5/6
f 657/6/6 656/6/6 658/6/6
f 640/5/6 657/5/6 659/5/6
f 657/5/6 658/5/6 659/5/6
f 654/5/6 650/5/6 660/5/6
f 659/5/6 658/5/6 660/5/6
f 658/5/6 654/5/6 660/5/6
f 661/2/6 662/2/6 665/2/6
f 665/2/6 662/2/6 666/2/6
f 663/2/6 664/2/6 667/2/6
f 667/2/6 664/2/6 668/2/6
f 669/2/6 670/2/6 673/2/6
f 673/2/6 670/2/6 674/2/6
f 671/2/6 672/2/6 675/2/6
f 675/2/6 672/2/6 676/2/6
