# MagicaVoxel @ Ephtracy

# group
o 

# material
mtllib cow_leg.mtl
usemtl palette

# normals
vn -1 0 0
vn 1 0 0
vn 0 0 1
vn 0 0 -1
vn 0 -1 0
vn 0 1 0

# texcoords
vt 0.970703 0.5
vt 0.994141 0.5

# verts
v -0.5 0 -0.8
v -0.5 0 -1
v -0.5 0.1 -0.8
v -0.5 0.1 -1
v -0.5 0.2 -0.9
v -0.5 0.2 -1
v -0.5 0.4 -0.9
v -0.5 0.4 -1
v -0.5 0.6 -0.8
v -0.5 0.6 -1
v -0.3 0 -0.8
v -0.3 0 -1
v -0.3 0.1 -0.8
v -0.3 0.1 -1
v -0.3 0.6 -0.8
v -0.3 0.6 -1
v -0.5 0 -0.8
v -0.5 0.1 -0.8
v -0.5 0.6 -0.8
v -0.3 0 -0.8
v -0.3 0.1 -0.8
v -0.3 0.6 -0.8
v -0.5 0 -1
v -0.5 0.1 -1
v -0.5 0.2 -1
v -0.5 0.4 -1
v -0.5 0.6 -1
v -0.4 0.2 -1
v -0.4 0.4 -1
v -0.3 0 -1
v -0.3 0.1 -1
v -0.3 0.6 -1
v -0.5 0 -0.8
v -0.3 0 -0.8
v -0.5 0 -1
v -0.3 0 -1
v -0.5 0.6 -0.8
v -0.3 0.6 -0.8
v -0.5 0.6 -1
v -0.3 0.6 -1

# faces
f 3/2/1 2/2/1 1/2/1
f 4/2/1 2/2/1 3/2/1
f 5/1/1 4/1/1 3/1/1
f 6/1/1 4/1/1 5/1/1
f 7/1/1 5/1/1 3/1/1
f 7/2/1 6/2/1 5/2/1
f 8/2/1 6/2/1 7/2/1
f 9/1/1 7/1/1 3/1/1
f 9/1/1 8/1/1 7/1/1
f 10/1/1 8/1/1 9/1/1
f 11/2/2 12/2/2 13/2/2
f 13/2/2 12/2/2 14/2/2
f 13/1/2 14/1/2 15/1/2
f 15/1/2 14/1/2 16/1/2
f 20/2/3 18/2/3 17/2/3
f 21/1/3 19/1/3 18/1/3
f 21/2/3 18/2/3 20/2/3
f 22/1/3 19/1/3 21/1/3
f 24/1/4 25/1/4 28/1/4
f 25/2/4 26/2/4 28/2/4
f 26/1/4 27/1/4 29/1/4
f 28/2/4 26/2/4 29/2/4
f 23/2/4 24/2/4 30/2/4
f 24/1/4 28/1/4 31/1/4
f 30/2/4 24/2/4 31/2/4
f 28/1/4 29/1/4 31/1/4
f 29/1/4 27/1/4 32/1/4
f 31/1/4 29/1/4 32/1/4
f 35/2/5 34/2/5 33/2/5
f 36/2/5 34/2/5 35/2/5
f 37/1/6 38/1/6 39/1/6
f 39/1/6 38/1/6 40/1/6
